UbuntuSansMono-Bold.ufo
<glyph name="eight" format="2">
  <advance width="560"/>
  <unicode hex="0038"/>
  <outline>
    <contour>
      <point x="277" y="-15" type="curve" smooth="yes"/>
      <point x="456" y="-15"/>
      <point x="519" y="90"/>
      <point x="519" y="179" type="curve" smooth="yes"/>
      <point x="519" y="249"/>
      <point x="487" y="307"/>
      <point x="402" y="356" type="curve"/>
      <point x="469" y="398"/>
      <point x="500" y="465"/>
      <point x="500" y="529" type="curve" smooth="yes"/>
      <point x="500" y="638"/>
      <point x="414" y="710"/>
      <point x="282" y="710" type="curve" smooth="yes"/>
      <point x="116" y="710"/>
      <point x="59" y="598"/>
      <point x="59" y="507" type="curve" smooth="yes"/>
      <point x="59" y="451"/>
      <point x="80" y="400"/>
      <point x="144" y="355" type="curve"/>
      <point x="75" y="307"/>
      <point x="43" y="243"/>
      <point x="43" y="174" type="curve" smooth="yes"/>
      <point x="43" y="56"/>
      <point x="137" y="-15"/>
    </contour>
    <contour>
      <point x="279" y="100" type="curve" smooth="yes"/>
      <point x="221" y="100"/>
      <point x="171" y="131"/>
      <point x="171" y="190" type="curve" smooth="yes"/>
      <point x="171" y="230"/>
      <point x="195" y="276"/>
      <point x="236" y="309" type="curve"/>
      <point x="345" y="267"/>
      <point x="389" y="241"/>
      <point x="389" y="181" type="curve" smooth="yes"/>
      <point x="389" y="137"/>
      <point x="345" y="100"/>
    </contour>
    <contour>
      <point x="306" y="401" type="curve"/>
      <point x="220" y="437"/>
      <point x="189" y="464"/>
      <point x="189" y="516" type="curve" smooth="yes"/>
      <point x="189" y="568"/>
      <point x="233" y="596"/>
      <point x="280" y="596" type="curve" smooth="yes"/>
      <point x="329" y="596"/>
      <point x="370" y="569"/>
      <point x="370" y="517" type="curve" smooth="yes"/>
      <point x="370" y="479"/>
      <point x="352" y="435"/>
    </contour>
  </outline>
</glyph>
<glyph name="question" format="2">
  <advance width="560"/>
  <unicode hex="003F"/>
  <outline>
    <contour>
      <point x="186" y="252" type="curve"/>
      <point x="311" y="252" type="line"/>
      <point x="311" y="348"/>
      <point x="486" y="402"/>
      <point x="486" y="533" type="curve" smooth="yes"/>
      <point x="486" y="607"/>
      <point x="444" y="709"/>
      <point x="273" y="709" type="curve" smooth="yes"/>
      <point x="205" y="709"/>
      <point x="129" y="690"/>
      <point x="77" y="657" type="curve"/>
      <point x="115" y="552" type="line"/>
      <point x="167" y="578"/>
      <point x="211" y="592"/>
      <point x="258" y="592" type="curve" smooth="yes"/>
      <point x="306" y="592"/>
      <point x="340" y="569"/>
      <point x="340" y="524" type="curve" smooth="yes"/>
      <point x="340" y="444"/>
      <point x="185" y="413"/>
      <point x="185" y="269" type="curve" smooth="yes"/>
      <point x="185" y="263"/>
      <point x="185" y="258"/>
    </contour>
    <contour>
      <point x="258" y="-13" type="curve" smooth="yes"/>
      <point x="305" y="-13"/>
      <point x="351" y="21"/>
      <point x="351" y="80" type="curve" smooth="yes"/>
      <point x="351" y="137"/>
      <point x="305" y="171"/>
      <point x="258" y="171" type="curve" smooth="yes"/>
      <point x="209" y="171"/>
      <point x="164" y="137"/>
      <point x="164" y="80" type="curve" smooth="yes"/>
      <point x="164" y="21"/>
      <point x="209" y="-13"/>
    </contour>
  </outline>
</glyph>
<glyph name="A" format="2">
  <advance width="560"/>
  <unicode hex="0041"/>
  <anchor x="280" y="0" name="bottom"/>
  <anchor x="504" y="11" name="ogonek"/>
  <anchor x="280" y="685" name="top"/>
  <outline>
    <contour>
      <point x="10" y="0" type="curve"/>
      <point x="153" y="0" type="line"/>
      <point x="185" y="160" type="line"/>
      <point x="370" y="160" type="line"/>
      <point x="402" y="0" type="line"/>
      <point x="550" y="0" type="line"/>
      <point x="489" y="264"/>
      <point x="422" y="492"/>
      <point x="357" y="693" type="curve"/>
      <point x="207" y="693" type="line"/>
      <point x="144" y="492"/>
      <point x="76" y="273"/>
    </contour>
    <contour>
      <point x="211" y="274" type="line"/>
      <point x="228" y="374"/>
      <point x="249" y="454"/>
      <point x="279" y="559" type="curve"/>
      <point x="309" y="454"/>
      <point x="329" y="374"/>
      <point x="346" y="274" type="curve"/>
    </contour>
  </outline>
</glyph>
<glyph name="K" format="2">
  <advance width="560"/>
  <unicode hex="004B"/>
  <anchor x="280" y="0" name="bottom"/>
  <anchor x="280" y="685" name="top"/>
  <outline>
    <contour>
      <point x="50" y="0" type="line"/>
      <point x="188" y="0" type="line"/>
      <point x="188" y="317" type="line"/>
      <point x="263" y="250"/>
      <point x="360" y="105"/>
      <point x="392" y="0" type="curve"/>
      <point x="548" y="0" type="line"/>
      <point x="506" y="132"/>
      <point x="403" y="286"/>
      <point x="310" y="374" type="curve"/>
      <point x="403" y="482"/>
      <point x="484" y="612"/>
      <point x="524" y="693" type="curve"/>
      <point x="368" y="693" type="line"/>
      <point x="334" y="613"/>
      <point x="255" y="491"/>
      <point x="188" y="405" type="curve"/>
      <point x="188" y="693" type="line"/>
      <point x="50" y="693" type="line"/>
    </contour>
  </outline>
</glyph>
<glyph name="R" format="2">
  <advance width="560"/>
  <unicode hex="0052"/>
  <anchor x="280" y="0" name="bottom"/>
  <anchor x="280" y="685" name="top"/>
  <outline>
    <contour>
      <point x="60" y="0" type="line"/>
      <point x="198" y="0" type="line"/>
      <point x="198" y="255" type="line"/>
      <point x="255" y="255" type="line"/>
      <point x="260" y="255"/>
      <point x="265" y="255"/>
      <point x="270" y="255" type="curve"/>
      <point x="321" y="171"/>
      <point x="370" y="88"/>
      <point x="403" y="0" type="curve"/>
      <point x="548" y="0" type="line"/>
      <point x="512" y="93"/>
      <point x="446" y="213"/>
      <point x="395" y="289" type="curve"/>
      <point x="472" y="323"/>
      <point x="502" y="393"/>
      <point x="502" y="474" type="curve" smooth="yes"/>
      <point x="502" y="629"/>
      <point x="398" y="701"/>
      <point x="240" y="701" type="curve" smooth="yes"/>
      <point x="196" y="701"/>
      <point x="113" y="697"/>
      <point x="60" y="683" type="curve"/>
    </contour>
    <contour>
      <point x="198" y="370" type="line"/>
      <point x="198" y="578" type="line"/>
      <point x="213" y="580"/>
      <point x="230" y="581"/>
      <point x="240" y="581" type="curve" smooth="yes"/>
      <point x="312" y="581"/>
      <point x="362" y="548"/>
      <point x="362" y="475" type="curve" smooth="yes"/>
      <point x="362" y="409"/>
      <point x="323" y="370"/>
      <point x="228" y="370" type="curve" smooth="yes"/>
    </contour>
  </outline>
</glyph>
<glyph name="S" format="2">
  <advance width="560"/>
  <unicode hex="0053"/>
  <anchor x="280" y="0" name="bottom"/>
  <anchor x="280" y="685" name="top"/>
  <outline>
    <contour>
      <point x="260" y="-15" type="curve" smooth="yes"/>
      <point x="430" y="-15"/>
      <point x="515" y="60"/>
      <point x="515" y="189" type="curve" smooth="yes"/>
      <point x="515" y="342"/>
      <point x="402" y="382"/>
      <point x="315" y="414" type="curve" smooth="yes"/>
      <point x="258" y="435"/>
      <point x="193" y="461"/>
      <point x="193" y="514" type="curve" smooth="yes"/>
      <point x="193" y="566"/>
      <point x="228" y="594"/>
      <point x="302" y="594" type="curve" smooth="yes"/>
      <point x="362" y="594"/>
      <point x="407" y="577"/>
      <point x="444" y="556" type="curve"/>
      <point x="484" y="662" type="line"/>
      <point x="441" y="685"/>
      <point x="376" y="709"/>
      <point x="292" y="709" type="curve" smooth="yes"/>
      <point x="146" y="709"/>
      <point x="55" y="631"/>
      <point x="55" y="502" type="curve" smooth="yes"/>
      <point x="55" y="371"/>
      <point x="161" y="333"/>
      <point x="244" y="301" type="curve" smooth="yes"/>
      <point x="306" y="277"/>
      <point x="377" y="249"/>
      <point x="377" y="190" type="curve" smooth="yes"/>
      <point x="377" y="144"/>
      <point x="353" y="101"/>
      <point x="260" y="101" type="curve" smooth="yes"/>
      <point x="180" y="101"/>
      <point x="125" y="127"/>
      <point x="85" y="150" type="curve"/>
      <point x="45" y="38" type="line"/>
      <point x="80" y="17"/>
      <point x="144" y="-15"/>
    </contour>
  </outline>
</glyph>
<glyph name="asciicircum" format="2">
  <advance width="560"/>
  <unicode hex="005E"/>
  <outline>
    <contour>
      <point x="143" y="286" type="line"/>
      <point x="284" y="530" type="line"/>
      <point x="426" y="286" type="line"/>
      <point x="550" y="346" type="line"/>
      <point x="343" y="693" type="line"/>
      <point x="225" y="693" type="line"/>
      <point x="18" y="346" type="line"/>
    </contour>
  </outline>
</glyph>
<glyph name="b" format="2">
  <advance width="560"/>
  <unicode hex="0062"/>
  <anchor x="280" y="0" name="bottom"/>
  <anchor x="280" y="291" name="center"/>
  <anchor x="280" y="582" name="top"/>
  <outline>
    <contour>
      <point x="273" y="-12" type="curve" smooth="yes"/>
      <point x="435" y="-12"/>
      <point x="526" y="95"/>
      <point x="526" y="263" type="curve" smooth="yes"/>
      <point x="526" y="428"/>
      <point x="454" y="538"/>
      <point x="317" y="538" type="curve" smooth="yes"/>
      <point x="281" y="538"/>
      <point x="246" y="532"/>
      <point x="207" y="514" type="curve"/>
      <point x="207" y="777" type="line"/>
      <point x="69" y="754" type="line"/>
      <point x="69" y="16" type="line"/>
      <point x="120" y="0"/>
      <point x="203" y="-12"/>
    </contour>
    <contour>
      <point x="270" y="106" type="curve" smooth="yes"/>
      <point x="254" y="106"/>
      <point x="228" y="108"/>
      <point x="207" y="112" type="curve"/>
      <point x="207" y="398" type="line"/>
      <point x="227" y="410"/>
      <point x="259" y="419"/>
      <point x="289" y="419" type="curve" smooth="yes"/>
      <point x="354" y="419"/>
      <point x="386" y="364"/>
      <point x="386" y="267" type="curve" smooth="yes"/>
      <point x="386" y="151"/>
      <point x="342" y="106"/>
    </contour>
  </outline>
</glyph>
<glyph name="n" format="2">
  <advance width="560"/>
  <unicode hex="006E"/>
  <anchor x="280" y="0" name="bottom"/>
  <anchor x="280" y="582" name="top"/>
  <outline>
    <contour>
      <point x="71" y="0" type="line"/>
      <point x="208" y="0" type="line"/>
      <point x="208" y="413" type="line"/>
      <point x="231" y="416"/>
      <point x="251" y="418"/>
      <point x="271" y="418" type="curve" smooth="yes"/>
      <point x="339" y="418"/>
      <point x="356" y="377"/>
      <point x="356" y="279" type="curve" smooth="yes"/>
      <point x="356" y="0" type="line"/>
      <point x="494" y="0" type="line"/>
      <point x="494" y="297" type="line" smooth="yes"/>
      <point x="494" y="440"/>
      <point x="448" y="538"/>
      <point x="280" y="538" type="curve" smooth="yes"/>
      <point x="196" y="538"/>
      <point x="120" y="523"/>
      <point x="71" y="510" type="curve"/>
    </contour>
  </outline>
</glyph>
<glyph name="o" format="2">
  <advance width="560"/>
  <unicode hex="006F"/>
  <anchor x="280" y="0" name="bottom"/>
  <anchor x="280" y="291" name="center"/>
  <anchor x="504" y="11" name="ogonek"/>
  <anchor x="280" y="582" name="top"/>
  <anchor x="538" y="582" name="topright"/>
  <outline>
    <contour>
      <point x="281" y="-15" type="curve" smooth="yes"/>
      <point x="430" y="-15"/>
      <point x="529" y="99"/>
      <point x="529" y="264" type="curve" smooth="yes"/>
      <point x="529" y="430"/>
      <point x="428" y="540"/>
      <point x="281" y="540" type="curve" smooth="yes"/>
      <point x="137" y="540"/>
      <point x="32" y="430"/>
      <point x="32" y="264" type="curve" smooth="yes"/>
      <point x="32" y="99"/>
      <point x="133" y="-15"/>
    </contour>
    <contour>
      <point x="279" y="105" type="curve" smooth="yes"/>
      <point x="205" y="105"/>
      <point x="172" y="169"/>
      <point x="172" y="263" type="curve" smooth="yes"/>
      <point x="172" y="357"/>
      <point x="211" y="420"/>
      <point x="281" y="420" type="curve" smooth="yes"/>
      <point x="355" y="420"/>
      <point x="388" y="357"/>
      <point x="388" y="263" type="curve" smooth="yes"/>
      <point x="388" y="169"/>
      <point x="351" y="105"/>
    </contour>
  </outline>
</glyph>
<glyph name="y" format="2">
  <advance width="560"/>
  <unicode hex="0079"/>
  <anchor x="280" y="0" name="bottom"/>
  <anchor x="280" y="582" name="top"/>
  <outline>
    <contour>
      <point x="133" y="-188" type="curve" smooth="yes"/>
      <point x="243" y="-188"/>
      <point x="293" y="-136"/>
      <point x="349" y="-17" type="curve" smooth="yes"/>
      <point x="426" y="148"/>
      <point x="473" y="329"/>
      <point x="529" y="526" type="curve"/>
      <point x="388" y="526" type="line"/>
      <point x="363" y="412"/>
      <point x="330" y="272"/>
      <point x="299" y="167" type="curve"/>
      <point x="255" y="271"/>
      <point x="211" y="416"/>
      <point x="185" y="526" type="curve"/>
      <point x="41" y="526" type="line"/>
      <point x="95" y="324"/>
      <point x="165" y="150"/>
      <point x="230" y="20" type="curve"/>
      <point x="211" y="-29"/>
      <point x="179" y="-71"/>
      <point x="125" y="-71" type="curve" smooth="yes"/>
      <point x="99" y="-71"/>
      <point x="77" y="-66"/>
      <point x="48" y="-53" type="curve"/>
      <point x="22" y="-168" type="line"/>
      <point x="47" y="-179"/>
      <point x="87" y="-188"/>
    </contour>
  </outline>
</glyph>
<glyph name="z" format="2">
  <advance width="560"/>
  <unicode hex="007A"/>
  <anchor x="280" y="0" name="bottom"/>
  <anchor x="280" y="291" name="center"/>
  <anchor x="280" y="582" name="top"/>
  <outline>
    <contour>
      <point x="75" y="0" type="line"/>
      <point x="488" y="0" type="line"/>
      <point x="488" y="114" type="line"/>
      <point x="240" y="114" type="line"/>
      <point x="310" y="223"/>
      <point x="435" y="379"/>
      <point x="477" y="426" type="curve"/>
      <point x="477" y="526" type="line"/>
      <point x="86" y="526" type="line"/>
      <point x="86" y="412" type="line"/>
      <point x="304" y="412" type="line"/>
      <point x="240" y="328"/>
      <point x="144" y="197"/>
      <point x="75" y="84" type="curve"/>
    </contour>
  </outline>
</glyph>
<glyph name="currency" format="2">
  <advance width="560"/>
  <unicode hex="00A4"/>
  <outline>
    <contour>
      <point x="115" y="96" type="line"/>
      <point x="189" y="168" type="line"/>
      <point x="218" y="155"/>
      <point x="248" y="150"/>
      <point x="281" y="150" type="curve" smooth="yes"/>
      <point x="316" y="150"/>
      <point x="344" y="155"/>
      <point x="372" y="168" type="curve"/>
      <point x="446" y="96" type="line"/>
      <point x="540" y="188" type="line"/>
      <point x="468" y="258" type="line"/>
      <point x="482" y="283"/>
      <point x="489" y="314"/>
      <point x="489" y="347" type="curve" smooth="yes"/>
      <point x="489" y="381"/>
      <point x="482" y="411"/>
      <point x="468" y="437" type="curve"/>
      <point x="540" y="506" type="line"/>
      <point x="447" y="597" type="line"/>
      <point x="373" y="526" type="line"/>
      <point x="344" y="539"/>
      <point x="314" y="544"/>
      <point x="281" y="544" type="curve" smooth="yes"/>
      <point x="246" y="544"/>
      <point x="218" y="539"/>
      <point x="190" y="526" type="curve"/>
      <point x="116" y="598" type="line"/>
      <point x="22" y="506" type="line"/>
      <point x="94" y="437" type="line"/>
      <point x="80" y="411"/>
      <point x="73" y="381"/>
      <point x="73" y="347" type="curve" smooth="yes"/>
      <point x="73" y="314"/>
      <point x="80" y="283"/>
      <point x="94" y="258" type="curve"/>
      <point x="22" y="187" type="line"/>
    </contour>
    <contour>
      <point x="281" y="260" type="curve" smooth="yes"/>
      <point x="236" y="260"/>
      <point x="199" y="290"/>
      <point x="199" y="347" type="curve" smooth="yes"/>
      <point x="199" y="404"/>
      <point x="236" y="435"/>
      <point x="281" y="435" type="curve" smooth="yes"/>
      <point x="326" y="435"/>
      <point x="363" y="404"/>
      <point x="363" y="347" type="curve" smooth="yes"/>
      <point x="363" y="290"/>
      <point x="326" y="260"/>
    </contour>
  </outline>
</glyph>
<glyph name="degree" format="2">
  <advance width="560"/>
  <unicode hex="00B0"/>
  <outline>
    <contour>
      <point x="282" y="472" type="curve" smooth="yes"/>
      <point x="375" y="472"/>
      <point x="444" y="530"/>
      <point x="444" y="626" type="curve" smooth="yes"/>
      <point x="444" y="722"/>
      <point x="375" y="782"/>
      <point x="282" y="782" type="curve" smooth="yes"/>
      <point x="187" y="782"/>
      <point x="121" y="722"/>
      <point x="121" y="626" type="curve" smooth="yes"/>
      <point x="121" y="530"/>
      <point x="185" y="472"/>
    </contour>
    <contour>
      <point x="282" y="566" type="curve" smooth="yes"/>
      <point x="248" y="566"/>
      <point x="221" y="586"/>
      <point x="221" y="627" type="curve" smooth="yes"/>
      <point x="221" y="669"/>
      <point x="249" y="688"/>
      <point x="282" y="688" type="curve" smooth="yes"/>
      <point x="317" y="688"/>
      <point x="343" y="669"/>
      <point x="343" y="627" type="curve" smooth="yes"/>
      <point x="343" y="586"/>
      <point x="317" y="566"/>
    </contour>
  </outline>
</glyph>
<glyph name="questiondown" format="2">
  <advance width="560"/>
  <unicode hex="00BF"/>
  <outline>
    <contour>
      <point x="290" y="-190" type="curve" smooth="yes"/>
      <point x="358" y="-190"/>
      <point x="435" y="-171"/>
      <point x="486" y="-139" type="curve"/>
      <point x="448" y="-34" type="line"/>
      <point x="396" y="-59"/>
      <point x="353" y="-74"/>
      <point x="306" y="-74" type="curve" smooth="yes"/>
      <point x="258" y="-74"/>
      <point x="223" y="-50"/>
      <point x="223" y="-6" type="curve" smooth="yes"/>
      <point x="223" y="31"/>
      <point x="260" y="54"/>
      <point x="293" y="82" type="curve" smooth="yes"/>
      <point x="344" y="123"/>
      <point x="379" y="180"/>
      <point x="379" y="240" type="curve" smooth="yes"/>
      <point x="379" y="245"/>
      <point x="379" y="251"/>
      <point x="377" y="256" type="curve"/>
      <point x="252" y="256" type="line"/>
      <point x="252" y="215"/>
      <point x="220" y="183"/>
      <point x="181" y="149" type="curve" smooth="yes"/>
      <point x="133" y="105"/>
      <point x="77" y="59"/>
      <point x="77" y="-15" type="curve" smooth="yes"/>
      <point x="77" y="-88"/>
      <point x="120" y="-190"/>
    </contour>
    <contour>
      <point x="306" y="337" type="curve" smooth="yes"/>
      <point x="354" y="337"/>
      <point x="400" y="372"/>
      <point x="400" y="429" type="curve" smooth="yes"/>
      <point x="400" y="487"/>
      <point x="354" y="522"/>
      <point x="306" y="522" type="curve" smooth="yes"/>
      <point x="259" y="522"/>
      <point x="213" y="487"/>
      <point x="213" y="429" type="curve" smooth="yes"/>
      <point x="213" y="372"/>
      <point x="259" y="337"/>
    </contour>
  </outline>
</glyph>
<glyph name="AE" format="2">
  <advance width="560"/>
  <unicode hex="00C6"/>
  <anchor x="280" y="0" name="bottom"/>
  <anchor x="280" y="685" name="top"/>
  <outline>
    <contour>
      <point x="10" y="0" type="curve"/>
      <point x="153" y="0" type="line"/>
      <point x="184" y="160" type="line"/>
      <point x="286" y="160" type="line"/>
      <point x="286" y="0" type="line"/>
      <point x="550" y="0" type="line"/>
      <point x="550" y="114" type="line"/>
      <point x="411" y="114" type="line"/>
      <point x="411" y="310" type="line"/>
      <point x="510" y="310" type="line"/>
      <point x="510" y="424" type="line"/>
      <point x="411" y="424" type="line"/>
      <point x="411" y="579" type="line"/>
      <point x="535" y="579" type="line"/>
      <point x="535" y="693" type="line"/>
      <point x="222" y="693" type="line"/>
      <point x="136" y="458"/>
      <point x="88" y="317"/>
    </contour>
    <contour>
      <point x="208" y="274" type="line"/>
      <point x="235" y="398"/>
      <point x="260" y="498"/>
      <point x="286" y="600" type="curve"/>
      <point x="286" y="274" type="line"/>
    </contour>
  </outline>
</glyph>
<glyph name="oslash" format="2">
  <advance width="560"/>
  <unicode hex="00F8"/>
  <anchor x="280" y="582" name="top"/>
  <outline>
    <contour>
      <point x="112" y="-43" type="line"/>
      <point x="155" y="15" type="line"/>
      <point x="192" y="-4"/>
      <point x="233" y="-17"/>
      <point x="281" y="-17" type="curve" smooth="yes"/>
      <point x="430" y="-17"/>
      <point x="529" y="96"/>
      <point x="529" y="262" type="curve" smooth="yes"/>
      <point x="529" y="336"/>
      <point x="507" y="399"/>
      <point x="472" y="446" type="curve"/>
      <point x="519" y="510" type="line"/>
      <point x="448" y="562" type="line"/>
      <point x="407" y="505" type="line"/>
      <point x="370" y="526"/>
      <point x="328" y="538"/>
      <point x="281" y="538" type="curve" smooth="yes"/>
      <point x="137" y="538"/>
      <point x="32" y="428"/>
      <point x="32" y="262" type="curve" smooth="yes"/>
      <point x="32" y="186"/>
      <point x="53" y="122"/>
      <point x="88" y="74" type="curve"/>
      <point x="43" y="10" type="line"/>
    </contour>
    <contour>
      <point x="279" y="103" type="curve" smooth="yes"/>
      <point x="259" y="103"/>
      <point x="243" y="108"/>
      <point x="228" y="116" type="curve"/>
      <point x="382" y="324" type="line"/>
      <point x="386" y="305"/>
      <point x="388" y="284"/>
      <point x="388" y="261" type="curve" smooth="yes"/>
      <point x="388" y="167"/>
      <point x="351" y="103"/>
    </contour>
    <contour>
      <point x="178" y="195" type="line"/>
      <point x="174" y="215"/>
      <point x="172" y="237"/>
      <point x="172" y="261" type="curve" smooth="yes"/>
      <point x="172" y="355"/>
      <point x="211" y="418"/>
      <point x="281" y="418" type="curve" smooth="yes"/>
      <point x="301" y="418"/>
      <point x="318" y="413"/>
      <point x="332" y="405" type="curve"/>
    </contour>
  </outline>
</glyph>
<glyph name="aogonek" format="2">
  <advance width="560"/>
  <unicode hex="0105"/>
  <outline>
    <contour>
      <point x="388" y="-190" type="curve" smooth="yes"/>
      <point x="429" y="-190"/>
      <point x="472" y="-183"/>
      <point x="492" y="-175" type="curve"/>
      <point x="484" y="-110" type="line"/>
      <point x="461" y="-116"/>
      <point x="446" y="-118"/>
      <point x="433" y="-118" type="curve" smooth="yes"/>
      <point x="410" y="-118"/>
      <point x="403" y="-105"/>
      <point x="403" y="-91" type="curve" smooth="yes"/>
      <point x="403" y="-56"/>
      <point x="474" y="-1"/>
      <point x="494" y="15" type="curve"/>
      <point x="494" y="326" type="line" smooth="yes"/>
      <point x="494" y="457"/>
      <point x="441" y="540"/>
      <point x="269" y="540" type="curve" smooth="yes"/>
      <point x="202" y="540"/>
      <point x="132" y="528"/>
      <point x="99" y="516" type="curve"/>
      <point x="118" y="405" type="line"/>
      <point x="148" y="416"/>
      <point x="200" y="424"/>
      <point x="252" y="424" type="curve" smooth="yes"/>
      <point x="332" y="424"/>
      <point x="362" y="385"/>
      <point x="362" y="333" type="curve" smooth="yes"/>
      <point x="362" y="316" type="line"/>
      <point x="336" y="321"/>
      <point x="304" y="325"/>
      <point x="267" y="325" type="curve" smooth="yes"/>
      <point x="155" y="325"/>
      <point x="49" y="284"/>
      <point x="49" y="161" type="curve" smooth="yes"/>
      <point x="49" y="32"/>
      <point x="137" y="-12"/>
      <point x="271" y="-12" type="curve" smooth="yes"/>
      <point x="295" y="-12"/>
      <point x="321" y="-10"/>
      <point x="346" y="-8" type="curve"/>
      <point x="310" y="-40"/>
      <point x="287" y="-83"/>
      <point x="287" y="-119" type="curve" smooth="yes"/>
      <point x="287" y="-159"/>
      <point x="316" y="-190"/>
    </contour>
    <contour>
      <point x="281" y="99" type="curve" smooth="yes"/>
      <point x="224" y="99"/>
      <point x="185" y="118"/>
      <point x="185" y="165" type="curve" smooth="yes"/>
      <point x="185" y="217"/>
      <point x="237" y="228"/>
      <point x="295" y="228" type="curve" smooth="yes"/>
      <point x="316" y="228"/>
      <point x="344" y="226"/>
      <point x="362" y="223" type="curve"/>
      <point x="362" y="102" type="line"/>
      <point x="340" y="100"/>
      <point x="310" y="99"/>
    </contour>
  </outline>
</glyph>
<glyph name="dcaron" format="2">
  <advance width="560"/>
  <unicode hex="010F"/>
  <outline>
    <contour>
      <point x="231" y="-12" type="curve" smooth="yes"/>
      <point x="295" y="-12"/>
      <point x="367" y="0"/>
      <point x="413" y="16" type="curve"/>
      <point x="413" y="777" type="line"/>
      <point x="274" y="754" type="line"/>
      <point x="274" y="514" type="line"/>
      <point x="253" y="529"/>
      <point x="222" y="538"/>
      <point x="192" y="538" type="curve" smooth="yes"/>
      <point x="76" y="538"/>
      <point x="15" y="431"/>
      <point x="15" y="260" type="curve" smooth="yes"/>
      <point x="15" y="92"/>
      <point x="90" y="-12"/>
    </contour>
    <contour>
      <point x="232" y="106" type="curve" smooth="yes"/>
      <point x="178" y="106"/>
      <point x="155" y="172"/>
      <point x="155" y="267" type="curve" smooth="yes"/>
      <point x="155" y="364"/>
      <point x="172" y="419"/>
      <point x="215" y="419" type="curve" smooth="yes"/>
      <point x="237" y="419"/>
      <point x="260" y="410"/>
      <point x="274" y="398" type="curve"/>
      <point x="274" y="111" type="line"/>
      <point x="261" y="108"/>
      <point x="248" y="106"/>
    </contour>
    <contour>
      <point x="458" y="532" type="line"/>
      <point x="548" y="532" type="line"/>
      <point x="580" y="776" type="line"/>
      <point x="458" y="776" type="line"/>
    </contour>
  </outline>
</glyph>
<glyph name="eogonek" format="2">
  <advance width="560"/>
  <unicode hex="0119"/>
  <anchor x="280" y="582" name="top"/>
  <outline>
    <contour>
      <point x="376" y="-190" type="curve" smooth="yes"/>
      <point x="418" y="-190"/>
      <point x="460" y="-183"/>
      <point x="480" y="-175" type="curve"/>
      <point x="473" y="-110" type="line"/>
      <point x="450" y="-116"/>
      <point x="435" y="-118"/>
      <point x="422" y="-118" type="curve" smooth="yes"/>
      <point x="399" y="-118"/>
      <point x="392" y="-105"/>
      <point x="392" y="-91" type="curve" smooth="yes"/>
      <point x="392" y="-57"/>
      <point x="457" y="-3"/>
      <point x="491" y="19" type="curve"/>
      <point x="472" y="134" type="line"/>
      <point x="438" y="122"/>
      <point x="384" y="108"/>
      <point x="329" y="108" type="curve" smooth="yes"/>
      <point x="240" y="108"/>
      <point x="177" y="150"/>
      <point x="177" y="218" type="curve"/>
      <point x="519" y="218" type="line"/>
      <point x="520" y="231"/>
      <point x="521" y="252"/>
      <point x="521" y="270" type="curve" smooth="yes"/>
      <point x="521" y="446"/>
      <point x="438" y="540"/>
      <point x="283" y="540" type="curve" smooth="yes"/>
      <point x="157" y="540"/>
      <point x="35" y="445"/>
      <point x="35" y="259" type="curve" smooth="yes"/>
      <point x="35" y="81"/>
      <point x="146" y="-12"/>
      <point x="324" y="-12" type="curve" smooth="yes"/>
      <point x="326" y="-12"/>
      <point x="328" y="-12"/>
      <point x="330" y="-12" type="curve"/>
      <point x="297" y="-44"/>
      <point x="276" y="-84"/>
      <point x="276" y="-119" type="curve" smooth="yes"/>
      <point x="276" y="-159"/>
      <point x="305" y="-190"/>
    </contour>
    <contour>
      <point x="177" y="314" type="line"/>
      <point x="183" y="372"/>
      <point x="214" y="424"/>
      <point x="286" y="424" type="curve" smooth="yes"/>
      <point x="360" y="424"/>
      <point x="388" y="370"/>
      <point x="388" y="314" type="curve"/>
    </contour>
  </outline>
</glyph>
<glyph name="ij" format="2">
  <advance width="560"/>
  <unicode hex="0133"/>
  <outline>
    <contour>
      <point x="290" y="-185" type="curve" smooth="yes"/>
      <point x="418" y="-185"/>
      <point x="477" y="-120"/>
      <point x="477" y="19" type="curve" smooth="yes"/>
      <point x="477" y="526" type="line"/>
      <point x="338" y="526" type="line"/>
      <point x="338" y="15" type="line" smooth="yes"/>
      <point x="338" y="-38"/>
      <point x="323" y="-67"/>
      <point x="276" y="-67" type="curve" smooth="yes"/>
      <point x="251" y="-67"/>
      <point x="236" y="-65"/>
      <point x="216" y="-58" type="curve"/>
      <point x="197" y="-171" type="line"/>
      <point x="228" y="-183"/>
      <point x="271" y="-185"/>
    </contour>
    <contour>
      <point x="82" y="0" type="line"/>
      <point x="220" y="0" type="line"/>
      <point x="220" y="526" type="line"/>
      <point x="82" y="526" type="line"/>
    </contour>
    <contour>
      <point x="150" y="590" type="curve" smooth="yes"/>
      <point x="198" y="590"/>
      <point x="240" y="623"/>
      <point x="240" y="678" type="curve" smooth="yes"/>
      <point x="240" y="734"/>
      <point x="198" y="766"/>
      <point x="150" y="766" type="curve" smooth="yes"/>
      <point x="102" y="766"/>
      <point x="62" y="734"/>
      <point x="62" y="678" type="curve" smooth="yes"/>
      <point x="62" y="623"/>
      <point x="102" y="590"/>
    </contour>
    <contour>
      <point x="407" y="590" type="curve" smooth="yes"/>
      <point x="455" y="590"/>
      <point x="496" y="623"/>
      <point x="496" y="678" type="curve" smooth="yes"/>
      <point x="496" y="734"/>
      <point x="455" y="766"/>
      <point x="407" y="766" type="curve" smooth="yes"/>
      <point x="358" y="766"/>
      <point x="318" y="734"/>
      <point x="318" y="678" type="curve" smooth="yes"/>
      <point x="318" y="623"/>
      <point x="358" y="590"/>
    </contour>
  </outline>
</glyph>
<glyph name="Btopbar" format="2">
  <advance width="560"/>
  <unicode hex="0182"/>
  <outline>
    <contour>
      <point x="253" y="-9" type="curve" smooth="yes"/>
      <point x="428" y="-9"/>
      <point x="525" y="68"/>
      <point x="525" y="221" type="curve" smooth="yes"/>
      <point x="525" y="388"/>
      <point x="417" y="447"/>
      <point x="250" y="447" type="curve" smooth="yes"/>
      <point x="198" y="447" type="line"/>
      <point x="198" y="579" type="line"/>
      <point x="454" y="579" type="line"/>
      <point x="454" y="693" type="line"/>
      <point x="60" y="693" type="line"/>
      <point x="60" y="11" type="line"/>
      <point x="128" y="-3"/>
      <point x="202" y="-9"/>
    </contour>
    <contour>
      <point x="261" y="111" type="curve" smooth="yes"/>
      <point x="240" y="111"/>
      <point x="211" y="114"/>
      <point x="198" y="115" type="curve"/>
      <point x="198" y="327" type="line"/>
      <point x="245" y="327" type="line" smooth="yes"/>
      <point x="342" y="327"/>
      <point x="390" y="300"/>
      <point x="390" y="220" type="curve" smooth="yes"/>
      <point x="390" y="143"/>
      <point x="340" y="111"/>
    </contour>
  </outline>
</glyph>
<glyph name="florin" format="2">
  <advance width="560"/>
  <unicode hex="0192"/>
  <outline>
    <contour>
      <point x="88" y="-190" type="curve" smooth="yes"/>
      <point x="205" y="-190"/>
      <point x="295" y="-136"/>
      <point x="295" y="35" type="curve" smooth="yes"/>
      <point x="295" y="412" type="line"/>
      <point x="511" y="412" type="line"/>
      <point x="511" y="526" type="line"/>
      <point x="295" y="526" type="line"/>
      <point x="295" y="554" type="line" smooth="yes"/>
      <point x="295" y="645"/>
      <point x="338" y="659"/>
      <point x="390" y="659" type="curve" smooth="yes"/>
      <point x="436" y="659"/>
      <point x="493" y="642"/>
      <point x="528" y="631" type="curve"/>
      <point x="551" y="743" type="line"/>
      <point x="502" y="766"/>
      <point x="437" y="776"/>
      <point x="379" y="776" type="curve" smooth="yes"/>
      <point x="264" y="776"/>
      <point x="156" y="726"/>
      <point x="156" y="557" type="curve" smooth="yes"/>
      <point x="156" y="526" type="line"/>
      <point x="40" y="526" type="line"/>
      <point x="40" y="412" type="line"/>
      <point x="156" y="412" type="line"/>
      <point x="156" y="28" type="line" smooth="yes"/>
      <point x="156" y="-46"/>
      <point x="129" y="-69"/>
      <point x="83" y="-69" type="curve" smooth="yes"/>
      <point x="53" y="-69"/>
      <point x="41" y="-65"/>
      <point x="30" y="-62" type="curve"/>
      <point x="-1" y="-176" type="line"/>
      <point x="25" y="-184"/>
      <point x="45" y="-190"/>
    </contour>
  </outline>
</glyph>
<glyph name="Iota-latin" format="2">
  <advance width="560"/>
  <unicode hex="0196"/>
  <anchor x="280" y="0" name="bottom"/>
  <anchor x="280" y="685" name="top"/>
  <outline>
    <contour>
      <point x="372" y="-15" type="curve" smooth="yes"/>
      <point x="449" y="-15"/>
      <point x="488" y="2"/>
      <point x="517" y="16" type="curve"/>
      <point x="491" y="129" type="line"/>
      <point x="465" y="119"/>
      <point x="426" y="108"/>
      <point x="394" y="108" type="curve" smooth="yes"/>
      <point x="327" y="108"/>
      <point x="304" y="134"/>
      <point x="304" y="207" type="curve" smooth="yes"/>
      <point x="304" y="579" type="line"/>
      <point x="456" y="579" type="line"/>
      <point x="456" y="693" type="line"/>
      <point x="36" y="693" type="line"/>
      <point x="36" y="579" type="line"/>
      <point x="166" y="579" type="line"/>
      <point x="166" y="209" type="line" smooth="yes"/>
      <point x="166" y="88"/>
      <point x="207" y="-15"/>
    </contour>
  </outline>
</glyph>
<glyph name="khook" format="2">
  <advance width="560"/>
  <unicode hex="0199"/>
  <anchor x="280" y="0" name="bottom"/>
  <anchor x="280" y="582" name="top"/>
  <outline>
    <contour>
      <point x="71" y="0" type="line"/>
      <point x="209" y="0" type="line"/>
      <point x="209" y="249" type="line"/>
      <point x="267" y="195"/>
      <point x="351" y="76"/>
      <point x="388" y="0" type="curve"/>
      <point x="545" y="0" type="line"/>
      <point x="505" y="85"/>
      <point x="395" y="222"/>
      <point x="321" y="295" type="curve"/>
      <point x="382" y="360"/>
      <point x="472" y="457"/>
      <point x="525" y="526" type="curve"/>
      <point x="360" y="526" type="line"/>
      <point x="323" y="465"/>
      <point x="262" y="380"/>
      <point x="209" y="318" type="curve"/>
      <point x="209" y="595" type="line"/>
      <point x="209" y="641"/>
      <point x="227" y="664"/>
      <point x="264" y="664" type="curve" smooth="yes"/>
      <point x="281" y="664"/>
      <point x="295" y="661"/>
      <point x="309" y="657" type="curve"/>
      <point x="328" y="764" type="line"/>
      <point x="299" y="775"/>
      <point x="276" y="776"/>
      <point x="258" y="776" type="curve" smooth="yes"/>
      <point x="122" y="776"/>
      <point x="71" y="717"/>
      <point x="71" y="591" type="curve" smooth="yes"/>
    </contour>
  </outline>
</glyph>
<glyph name="Nhookleft" format="2">
  <advance width="560"/>
  <unicode hex="019D"/>
  <anchor x="280" y="0" name="bottom"/>
  <anchor x="280" y="685" name="top"/>
  <outline>
    <contour>
      <point x="11" y="-187" type="curve" smooth="yes"/>
      <point x="147" y="-187"/>
      <point x="176" y="-101"/>
      <point x="176" y="20" type="curve" smooth="yes"/>
      <point x="176" y="460" type="line"/>
      <point x="261" y="307"/>
      <point x="336" y="152"/>
      <point x="398" y="0" type="curve"/>
      <point x="508" y="0" type="line"/>
      <point x="508" y="693" type="line"/>
      <point x="384" y="693" type="line"/>
      <point x="384" y="267" type="line"/>
      <point x="336" y="375"/>
      <point x="245" y="562"/>
      <point x="162" y="693" type="curve"/>
      <point x="52" y="693" type="line"/>
      <point x="52" y="0" type="line" smooth="yes"/>
      <point x="52" y="-46"/>
      <point x="35" y="-71"/>
      <point x="-3" y="-71" type="curve" smooth="yes"/>
      <point x="-28" y="-71"/>
      <point x="-36" y="-71"/>
      <point x="-56" y="-63" type="curve"/>
      <point x="-76" y="-174" type="line"/>
      <point x="-44" y="-185"/>
      <point x="-8" y="-187"/>
    </contour>
  </outline>
</glyph>
<glyph name="Phook" format="2">
  <advance width="560"/>
  <unicode hex="01A4"/>
  <outline>
    <contour>
      <point x="170" y="0" type="line"/>
      <point x="288" y="0" type="line"/>
      <point x="288" y="234" type="line"/>
      <point x="315" y="234" type="line" smooth="yes"/>
      <point x="458" y="234"/>
      <point x="529" y="304"/>
      <point x="529" y="469" type="curve" smooth="yes"/>
      <point x="529" y="641"/>
      <point x="457" y="701"/>
      <point x="280" y="701" type="curve" smooth="yes"/>
      <point x="123" y="701"/>
      <point x="0" y="673"/>
      <point x="0" y="545" type="curve" smooth="yes"/>
      <point x="0" y="521"/>
      <point x="4" y="494"/>
      <point x="15" y="463" type="curve"/>
      <point x="115" y="476" type="line"/>
      <point x="108" y="494"/>
      <point x="104" y="513"/>
      <point x="104" y="535" type="curve" smooth="yes"/>
      <point x="104" y="566"/>
      <point x="121" y="591"/>
      <point x="170" y="591" type="curve"/>
    </contour>
    <contour>
      <point x="288" y="354" type="line"/>
      <point x="288" y="589" type="line"/>
      <point x="301" y="591"/>
      <point x="321" y="591"/>
      <point x="329" y="591" type="curve" smooth="yes"/>
      <point x="377" y="591"/>
      <point x="408" y="551"/>
      <point x="408" y="470" type="curve" smooth="yes"/>
      <point x="408" y="381"/>
      <point x="372" y="354"/>
      <point x="321" y="354" type="curve" smooth="yes"/>
    </contour>
  </outline>
</glyph>
<glyph name="tonetwo" format="2">
  <advance width="560"/>
  <unicode hex="01A8"/>
  <outline>
    <contour>
      <point x="301" y="-12" type="curve" smooth="yes"/>
      <point x="392" y="-12"/>
      <point x="457" y="15"/>
      <point x="495" y="31" type="curve"/>
      <point x="473" y="147" type="line"/>
      <point x="422" y="127"/>
      <point x="360" y="104"/>
      <point x="300" y="104" type="curve" smooth="yes"/>
      <point x="232" y="104"/>
      <point x="196" y="112"/>
      <point x="196" y="141" type="curve" smooth="yes"/>
      <point x="196" y="180"/>
      <point x="245" y="192"/>
      <point x="304" y="211" type="curve" smooth="yes"/>
      <point x="383" y="235"/>
      <point x="482" y="265"/>
      <point x="482" y="375" type="curve" smooth="yes"/>
      <point x="482" y="465"/>
      <point x="414" y="540"/>
      <point x="256" y="540" type="curve" smooth="yes"/>
      <point x="188" y="540"/>
      <point x="127" y="529"/>
      <point x="83" y="510" type="curve"/>
      <point x="105" y="393" type="line"/>
      <point x="129" y="401"/>
      <point x="189" y="424"/>
      <point x="255" y="424" type="curve" smooth="yes"/>
      <point x="325" y="424"/>
      <point x="345" y="404"/>
      <point x="345" y="384" type="curve" smooth="yes"/>
      <point x="345" y="351"/>
      <point x="297" y="335"/>
      <point x="241" y="316" type="curve" smooth="yes"/>
      <point x="160" y="289"/>
      <point x="60" y="258"/>
      <point x="60" y="146" type="curve" smooth="yes"/>
      <point x="60" y="58"/>
      <point x="122" y="-12"/>
    </contour>
  </outline>
</glyph>
<glyph name="thook" format="2">
  <advance width="560"/>
  <unicode hex="01AD"/>
  <anchor x="280" y="0" name="bottom"/>
  <anchor x="280" y="582" name="top"/>
  <outline>
    <contour>
      <point x="361" y="-12" type="curve" smooth="yes"/>
      <point x="426" y="-12"/>
      <point x="487" y="-1"/>
      <point x="538" y="21" type="curve"/>
      <point x="519" y="139" type="line"/>
      <point x="467" y="116"/>
      <point x="433" y="108"/>
      <point x="376" y="108" type="curve" smooth="yes"/>
      <point x="314" y="108"/>
      <point x="295" y="133"/>
      <point x="295" y="211" type="curve" smooth="yes"/>
      <point x="295" y="412" type="line"/>
      <point x="511" y="412" type="line"/>
      <point x="511" y="526" type="line"/>
      <point x="295" y="526" type="line"/>
      <point x="295" y="560" type="line" smooth="yes"/>
      <point x="295" y="613"/>
      <point x="320" y="650"/>
      <point x="404" y="650" type="curve" smooth="yes"/>
      <point x="435" y="650"/>
      <point x="470" y="645"/>
      <point x="501" y="633" type="curve"/>
      <point x="530" y="753" type="line"/>
      <point x="503" y="763"/>
      <point x="450" y="776"/>
      <point x="389" y="776" type="curve" smooth="yes"/>
      <point x="225" y="776"/>
      <point x="156" y="690"/>
      <point x="156" y="554" type="curve" smooth="yes"/>
      <point x="156" y="526" type="line"/>
      <point x="40" y="526" type="line"/>
      <point x="40" y="412" type="line"/>
      <point x="156" y="412" type="line"/>
      <point x="156" y="215" type="line"/>
      <point x="156" y="38"/>
      <point x="234" y="-12"/>
    </contour>
  </outline>
</glyph>
<glyph name="uhorn" format="2">
  <advance width="560"/>
  <unicode hex="01B0"/>
  <anchor x="280" y="0" name="bottom"/>
  <anchor x="280" y="582" name="top"/>
  <outline>
    <contour>
      <point x="240" y="-12" type="curve" smooth="yes"/>
      <point x="316" y="-12"/>
      <point x="385" y="4"/>
      <point x="430" y="18" type="curve"/>
      <point x="430" y="451" type="line"/>
      <point x="519" y="465"/>
      <point x="547" y="513"/>
      <point x="547" y="582" type="curve" smooth="yes"/>
      <point x="547" y="598"/>
      <point x="547" y="614"/>
      <point x="543" y="632" type="curve"/>
      <point x="429" y="632" type="line"/>
      <point x="430" y="618"/>
      <point x="431" y="607"/>
      <point x="431" y="595" type="curve" smooth="yes"/>
      <point x="431" y="554"/>
      <point x="418" y="529"/>
      <point x="366" y="526" type="curve"/>
      <point x="302" y="526" type="line"/>
      <point x="302" y="103" type="line"/>
      <point x="288" y="100"/>
      <point x="253" y="99"/>
      <point x="239" y="99" type="curve" smooth="yes"/>
      <point x="188" y="99"/>
      <point x="174" y="144"/>
      <point x="174" y="241" type="curve" smooth="yes"/>
      <point x="174" y="526" type="line"/>
      <point x="46" y="526" type="line"/>
      <point x="46" y="233" type="line" smooth="yes"/>
      <point x="46" y="90"/>
      <point x="83" y="-12"/>
    </contour>
  </outline>
</glyph>
<glyph name="Ezhreversed" format="2">
  <advance width="560"/>
  <unicode hex="01B8"/>
  <anchor x="280" y="0" name="bottom"/>
  <anchor x="280" y="685" name="top"/>
  <outline>
    <contour>
      <point x="325" y="-15" type="curve" smooth="yes"/>
      <point x="436" y="-15"/>
      <point x="516" y="18"/>
      <point x="554" y="39" type="curve"/>
      <point x="511" y="150" type="line"/>
      <point x="467" y="127"/>
      <point x="403" y="105"/>
      <point x="326" y="105" type="curve" smooth="yes"/>
      <point x="239" y="105"/>
      <point x="186" y="143"/>
      <point x="186" y="207" type="curve" smooth="yes"/>
      <point x="186" y="284"/>
      <point x="239" y="320"/>
      <point x="357" y="320" type="curve" smooth="yes"/>
      <point x="396" y="320" type="line"/>
      <point x="396" y="392" type="line"/>
      <point x="346" y="442"/>
      <point x="262" y="532"/>
      <point x="223" y="579" type="curve"/>
      <point x="519" y="579" type="line"/>
      <point x="519" y="693" type="line"/>
      <point x="63" y="693" type="line"/>
      <point x="63" y="600" type="line"/>
      <point x="95" y="559"/>
      <point x="181" y="466"/>
      <point x="242" y="403" type="curve"/>
      <point x="99" y="379"/>
      <point x="45" y="307"/>
      <point x="45" y="205" type="curve" smooth="yes"/>
      <point x="45" y="53"/>
      <point x="155" y="-15"/>
    </contour>
  </outline>
</glyph>
<glyph name="ezhreversed" format="2">
  <advance width="560"/>
  <unicode hex="01B9"/>
  <anchor x="280" y="0" name="bottom"/>
  <anchor x="280" y="582" name="top"/>
  <outline>
    <contour>
      <point x="325" y="-185" type="curve" smooth="yes"/>
      <point x="400" y="-185"/>
      <point x="484" y="-167"/>
      <point x="530" y="-144" type="curve"/>
      <point x="500" y="-34" type="line"/>
      <point x="456" y="-53"/>
      <point x="388" y="-65"/>
      <point x="335" y="-65" type="curve" smooth="yes"/>
      <point x="252" y="-65"/>
      <point x="200" y="-30"/>
      <point x="200" y="41" type="curve" smooth="yes"/>
      <point x="200" y="120"/>
      <point x="262" y="152"/>
      <point x="357" y="152" type="curve" smooth="yes"/>
      <point x="401" y="152" type="line"/>
      <point x="401" y="224" type="line"/>
      <point x="356" y="272"/>
      <point x="289" y="364"/>
      <point x="252" y="412" type="curve"/>
      <point x="494" y="412" type="line"/>
      <point x="494" y="526" type="line"/>
      <point x="81" y="526" type="line"/>
      <point x="81" y="433" type="line"/>
      <point x="111" y="385"/>
      <point x="184" y="300"/>
      <point x="245" y="232" type="curve"/>
      <point x="114" y="205"/>
      <point x="60" y="136"/>
      <point x="60" y="35" type="curve" smooth="yes"/>
      <point x="60" y="-112"/>
      <point x="160" y="-185"/>
    </contour>
  </outline>
</glyph>
<glyph name="lj" format="2">
  <advance width="560"/>
  <unicode hex="01C9"/>
  <outline>
    <contour>
      <point x="321" y="-190" type="curve" smooth="yes"/>
      <point x="433" y="-190"/>
      <point x="498" y="-138"/>
      <point x="498" y="28" type="curve" smooth="yes"/>
      <point x="498" y="526" type="line"/>
      <point x="400" y="526" type="line"/>
      <point x="400" y="16" type="line" smooth="yes"/>
      <point x="400" y="-58"/>
      <point x="377" y="-91"/>
      <point x="321" y="-91" type="curve" smooth="yes"/>
      <point x="300" y="-91"/>
      <point x="279" y="-86"/>
      <point x="258" y="-81" type="curve"/>
      <point x="241" y="-176" type="line"/>
      <point x="260" y="-183"/>
      <point x="298" y="-190"/>
    </contour>
    <contour>
      <point x="272" y="-10" type="curve"/>
      <point x="289" y="83" type="line"/>
      <point x="199" y="88"/>
      <point x="160" y="105"/>
      <point x="160" y="203" type="curve" smooth="yes"/>
      <point x="160" y="776" type="line"/>
      <point x="62" y="759" type="line"/>
      <point x="62" y="172" type="line" smooth="yes"/>
      <point x="62" y="72"/>
      <point x="100" y="-7"/>
    </contour>
    <contour>
      <point x="445" y="589" type="curve" smooth="yes"/>
      <point x="486" y="589"/>
      <point x="521" y="619"/>
      <point x="521" y="665" type="curve" smooth="yes"/>
      <point x="521" y="712"/>
      <point x="486" y="743"/>
      <point x="445" y="743" type="curve" smooth="yes"/>
      <point x="405" y="743"/>
      <point x="370" y="712"/>
      <point x="370" y="665" type="curve" smooth="yes"/>
      <point x="370" y="619"/>
      <point x="405" y="589"/>
    </contour>
  </outline>
</glyph>
<glyph name="eturned" format="2">
  <advance width="560"/>
  <unicode hex="01DD"/>
  <outline>
    <contour>
      <point x="273" y="-12" type="curve" smooth="yes"/>
      <point x="399" y="-12"/>
      <point x="521" y="83"/>
      <point x="521" y="269" type="curve" smooth="yes"/>
      <point x="521" y="447"/>
      <point x="410" y="540"/>
      <point x="232" y="540" type="curve" smooth="yes"/>
      <point x="166" y="540"/>
      <point x="113" y="529"/>
      <point x="65" y="511" type="curve"/>
      <point x="85" y="394" type="line"/>
      <point x="118" y="407"/>
      <point x="172" y="420"/>
      <point x="227" y="420" type="curve" smooth="yes"/>
      <point x="316" y="420"/>
      <point x="379" y="379"/>
      <point x="379" y="310" type="curve"/>
      <point x="38" y="310" type="line"/>
      <point x="36" y="295"/>
      <point x="35" y="276"/>
      <point x="35" y="258" type="curve" smooth="yes"/>
      <point x="35" y="82"/>
      <point x="118" y="-12"/>
    </contour>
    <contour>
      <point x="271" y="104" type="curve" smooth="yes"/>
      <point x="196" y="104"/>
      <point x="168" y="159"/>
      <point x="168" y="214" type="curve"/>
      <point x="379" y="214" type="line"/>
      <point x="373" y="156"/>
      <point x="342" y="104"/>
    </contour>
  </outline>
</glyph>
<glyph name="Adotmacron" format="2">
  <advance width="560"/>
  <unicode hex="01E0"/>
  <outline>
    <contour>
      <point x="10" y="0" type="curve"/>
      <point x="153" y="0" type="line"/>
      <point x="185" y="138" type="line"/>
      <point x="370" y="138" type="line"/>
      <point x="402" y="0" type="line"/>
      <point x="550" y="0" type="line"/>
      <point x="489" y="264"/>
      <point x="422" y="447"/>
      <point x="357" y="648" type="curve"/>
      <point x="207" y="648" type="line"/>
      <point x="144" y="447"/>
      <point x="76" y="273"/>
    </contour>
    <contour>
      <point x="211" y="252" type="line"/>
      <point x="228" y="352"/>
      <point x="249" y="409"/>
      <point x="279" y="514" type="curve"/>
      <point x="309" y="409"/>
      <point x="329" y="352"/>
      <point x="346" y="252" type="curve"/>
    </contour>
    <contour>
      <point x="280" y="697" type="curve" smooth="yes"/>
      <point x="315" y="697"/>
      <point x="344" y="721"/>
      <point x="344" y="759" type="curve" smooth="yes"/>
      <point x="344" y="799"/>
      <point x="315" y="823"/>
      <point x="280" y="823" type="curve" smooth="yes"/>
      <point x="245" y="823"/>
      <point x="216" y="799"/>
      <point x="216" y="759" type="curve" smooth="yes"/>
      <point x="216" y="721"/>
      <point x="245" y="697"/>
    </contour>
    <contour>
      <point x="150" y="850" type="line"/>
      <point x="410" y="850" type="line"/>
      <point x="410" y="930" type="line"/>
      <point x="150" y="930" type="line"/>
    </contour>
  </outline>
</glyph>
<glyph name="gstroke" format="2">
  <advance width="560"/>
  <unicode hex="01E5"/>
  <outline>
    <contour>
      <point x="218" y="-188" type="curve" smooth="yes"/>
      <point x="395" y="-188"/>
      <point x="470" y="-108"/>
      <point x="470" y="64" type="curve" smooth="yes"/>
      <point x="470" y="246" type="line"/>
      <point x="530" y="246" type="line"/>
      <point x="530" y="336" type="line"/>
      <point x="470" y="336" type="line"/>
      <point x="470" y="510" type="line"/>
      <point x="405" y="529"/>
      <point x="349" y="538"/>
      <point x="292" y="538" type="curve" smooth="yes"/>
      <point x="136" y="538"/>
      <point x="37" y="454"/>
      <point x="37" y="280" type="curve" smooth="yes"/>
      <point x="37" y="127"/>
      <point x="106" y="35"/>
      <point x="235" y="35" type="curve" smooth="yes"/>
      <point x="269" y="35"/>
      <point x="297" y="43"/>
      <point x="332" y="57" type="curve"/>
      <point x="332" y="36" type="line" smooth="yes"/>
      <point x="332" y="-24"/>
      <point x="309" y="-72"/>
      <point x="220" y="-72" type="curve" smooth="yes"/>
      <point x="155" y="-72"/>
      <point x="112" y="-54"/>
      <point x="73" y="-38" type="curve"/>
      <point x="47" y="-155" type="line"/>
      <point x="99" y="-172"/>
      <point x="157" y="-188"/>
    </contour>
    <contour>
      <point x="263" y="147" type="curve" smooth="yes"/>
      <point x="204" y="147"/>
      <point x="177" y="194"/>
      <point x="177" y="280" type="curve" smooth="yes"/>
      <point x="177" y="379"/>
      <point x="213" y="426"/>
      <point x="287" y="426" type="curve" smooth="yes"/>
      <point x="302" y="426"/>
      <point x="314" y="424"/>
      <point x="332" y="420" type="curve"/>
      <point x="332" y="336" type="line"/>
      <point x="252" y="336" type="line"/>
      <point x="252" y="246" type="line"/>
      <point x="332" y="246" type="line"/>
      <point x="332" y="167" type="line"/>
      <point x="314" y="156"/>
      <point x="290" y="147"/>
    </contour>
  </outline>
</glyph>
<glyph name="kcaron" format="2">
  <advance width="560"/>
  <unicode hex="01E9"/>
  <outline>
    <contour>
      <point x="71" y="0" type="line"/>
      <point x="209" y="0" type="line"/>
      <point x="209" y="249" type="line"/>
      <point x="267" y="195"/>
      <point x="351" y="76"/>
      <point x="388" y="0" type="curve"/>
      <point x="545" y="0" type="line"/>
      <point x="505" y="85"/>
      <point x="395" y="222"/>
      <point x="321" y="295" type="curve"/>
      <point x="382" y="360"/>
      <point x="472" y="457"/>
      <point x="525" y="526" type="curve"/>
      <point x="360" y="526" type="line"/>
      <point x="323" y="465"/>
      <point x="262" y="380"/>
      <point x="209" y="318" type="curve"/>
      <point x="209" y="710" type="line"/>
      <point x="71" y="687" type="line"/>
    </contour>
    <contour>
      <point x="209" y="758" type="line"/>
      <point x="355" y="866" type="line"/>
      <point x="312" y="928" type="line"/>
      <point x="209" y="868" type="line"/>
      <point x="104" y="928" type="line"/>
      <point x="62" y="866" type="line"/>
    </contour>
  </outline>
</glyph>
<glyph name="dz" format="2">
  <advance width="560"/>
  <unicode hex="01F3"/>
  <anchor x="280" y="582" name="top"/>
  <outline>
    <contour>
      <point x="175" y="-15" type="curve" smooth="yes"/>
      <point x="214" y="-15"/>
      <point x="250" y="-4"/>
      <point x="296" y="16" type="curve"/>
      <point x="296" y="776" type="line"/>
      <point x="198" y="755" type="line"/>
      <point x="198" y="519" type="line"/>
      <point x="177" y="531"/>
      <point x="157" y="538"/>
      <point x="138" y="538" type="curve" smooth="yes"/>
      <point x="50" y="538"/>
      <point x="10" y="422"/>
      <point x="10" y="265" type="curve" smooth="yes"/>
      <point x="10" y="93"/>
      <point x="64" y="-15"/>
    </contour>
    <contour>
      <point x="172" y="90" type="curve" smooth="yes"/>
      <point x="113" y="90"/>
      <point x="109" y="162"/>
      <point x="109" y="240" type="curve" smooth="yes"/>
      <point x="109" y="329"/>
      <point x="118" y="433"/>
      <point x="158" y="433" type="curve" smooth="yes"/>
      <point x="169" y="433"/>
      <point x="183" y="426"/>
      <point x="198" y="412" type="curve"/>
      <point x="198" y="95" type="line"/>
      <point x="188" y="91"/>
      <point x="180" y="90"/>
    </contour>
    <contour>
      <point x="333" y="0" type="line"/>
      <point x="550" y="0" type="line"/>
      <point x="550" y="104" type="line"/>
      <point x="435" y="104" type="line"/>
      <point x="468" y="213"/>
      <point x="513" y="347"/>
      <point x="550" y="435" type="curve"/>
      <point x="550" y="526" type="line"/>
      <point x="343" y="526" type="line"/>
      <point x="343" y="422" type="line"/>
      <point x="445" y="422" type="line"/>
      <point x="404" y="311"/>
      <point x="379" y="223"/>
      <point x="333" y="80" type="curve"/>
    </contour>
  </outline>
</glyph>
<glyph name="Wynn" format="2">
  <advance width="560"/>
  <unicode hex="01F7"/>
  <outline>
    <contour>
      <point x="60" y="-185" type="line"/>
      <point x="198" y="-185" type="line"/>
      <point x="198" y="0" type="line"/>
      <point x="398" y="85"/>
      <point x="532" y="220"/>
      <point x="532" y="441" type="curve" smooth="yes"/>
      <point x="532" y="613"/>
      <point x="450" y="701"/>
      <point x="271" y="701" type="curve" smooth="yes"/>
      <point x="186" y="701"/>
      <point x="112" y="684"/>
      <point x="60" y="663" type="curve"/>
    </contour>
    <contour>
      <point x="198" y="130" type="curve"/>
      <point x="198" y="571" type="line"/>
      <point x="215" y="576"/>
      <point x="240" y="581"/>
      <point x="272" y="581" type="curve" smooth="yes"/>
      <point x="346" y="581"/>
      <point x="392" y="526"/>
      <point x="392" y="445" type="curve" smooth="yes"/>
      <point x="392" y="265"/>
      <point x="311" y="192"/>
    </contour>
  </outline>
</glyph>
<glyph name="Aringacute" format="2">
  <advance width="560"/>
  <unicode hex="01FA"/>
  <outline>
    <contour>
      <point x="10" y="0" type="curve"/>
      <point x="153" y="0" type="line"/>
      <point x="185" y="149" type="line"/>
      <point x="370" y="149" type="line"/>
      <point x="402" y="0" type="line"/>
      <point x="550" y="0" type="line"/>
      <point x="480" y="250"/>
      <point x="429" y="435"/>
      <point x="367" y="627" type="curve"/>
      <point x="376" y="643"/>
      <point x="381" y="660"/>
      <point x="381" y="681" type="curve" smooth="yes"/>
      <point x="381" y="745"/>
      <point x="332" y="780"/>
      <point x="279" y="780" type="curve" smooth="yes"/>
      <point x="227" y="780"/>
      <point x="178" y="745"/>
      <point x="178" y="681" type="curve" smooth="yes"/>
      <point x="178" y="657"/>
      <point x="184" y="637"/>
      <point x="195" y="623" type="curve"/>
      <point x="136" y="431"/>
      <point x="83" y="256"/>
    </contour>
    <contour>
      <point x="211" y="263" type="line"/>
      <point x="234" y="363"/>
      <point x="249" y="420"/>
      <point x="279" y="525" type="curve"/>
      <point x="309" y="420"/>
      <point x="324" y="363"/>
      <point x="346" y="263" type="curve"/>
    </contour>
    <contour>
      <point x="279" y="640" type="curve" smooth="yes"/>
      <point x="260" y="640"/>
      <point x="240" y="653"/>
      <point x="240" y="681" type="curve" smooth="yes"/>
      <point x="240" y="708"/>
      <point x="260" y="721"/>
      <point x="279" y="721" type="curve" smooth="yes"/>
      <point x="299" y="721"/>
      <point x="318" y="708"/>
      <point x="318" y="681" type="curve" smooth="yes"/>
      <point x="318" y="653"/>
      <point x="299" y="640"/>
    </contour>
    <contour>
      <point x="208" y="793" type="line"/>
      <point x="379" y="857" type="line"/>
      <point x="344" y="930" type="line"/>
      <point x="181" y="846" type="line"/>
    </contour>
  </outline>
</glyph>
<glyph name="dcurl" format="2">
  <advance width="560"/>
  <unicode hex="0221"/>
  <outline>
    <contour>
      <point x="450" y="-185" type="curve" smooth="yes"/>
      <point x="516" y="-185"/>
      <point x="582" y="-128"/>
      <point x="582" y="-18" type="curve" smooth="yes"/>
      <point x="582" y="60"/>
      <point x="541" y="138"/>
      <point x="455" y="138" type="curve" smooth="yes"/>
      <point x="442" y="138"/>
      <point x="427" y="136"/>
      <point x="412" y="132" type="curve"/>
      <point x="412" y="777" type="line"/>
      <point x="295" y="756" type="line"/>
      <point x="295" y="514" type="line"/>
      <point x="262" y="530"/>
      <point x="224" y="538"/>
      <point x="195" y="538" type="curve" smooth="yes"/>
      <point x="81" y="538"/>
      <point x="19" y="431"/>
      <point x="19" y="260" type="curve" smooth="yes"/>
      <point x="19" y="108"/>
      <point x="83" y="-3"/>
      <point x="198" y="-3" type="curve" smooth="yes"/>
      <point x="223" y="-3"/>
      <point x="251" y="2"/>
      <point x="280" y="13" type="curve"/>
      <point x="280" y="15"/>
      <point x="279" y="16"/>
      <point x="279" y="17" type="curve"/>
      <point x="164" y="-112" type="line"/>
      <point x="230" y="-175" type="line"/>
      <point x="323" y="-75" type="line"/>
      <point x="342" y="-150"/>
      <point x="392" y="-185"/>
    </contour>
    <contour>
      <point x="454" y="-92" type="curve" smooth="yes"/>
      <point x="433" y="-92"/>
      <point x="412" y="-73"/>
      <point x="412" y="-21" type="curve" smooth="yes"/>
      <point x="412" y="35" type="line"/>
      <point x="429" y="44"/>
      <point x="442" y="49"/>
      <point x="454" y="49" type="curve" smooth="yes"/>
      <point x="482" y="49"/>
      <point x="494" y="21"/>
      <point x="494" y="-20" type="curve" smooth="yes"/>
      <point x="494" y="-65"/>
      <point x="482" y="-92"/>
    </contour>
    <contour>
      <point x="245" y="100" type="curve" smooth="yes"/>
      <point x="153" y="100"/>
      <point x="137" y="167"/>
      <point x="137" y="265" type="curve" smooth="yes"/>
      <point x="137" y="345"/>
      <point x="165" y="424"/>
      <point x="218" y="424" type="curve" smooth="yes"/>
      <point x="239" y="424"/>
      <point x="268" y="416"/>
      <point x="295" y="403" type="curve"/>
      <point x="295" y="104" type="line"/>
      <point x="276" y="100"/>
      <point x="259" y="100"/>
    </contour>
  </outline>
</glyph>
<glyph name="tcurl" format="2">
  <advance width="560"/>
  <unicode hex="0236"/>
  <outline>
    <contour>
      <point x="344" y="-185" type="curve" smooth="yes"/>
      <point x="449" y="-185"/>
      <point x="519" y="-129"/>
      <point x="519" y="-12" type="curve" smooth="yes"/>
      <point x="519" y="105"/>
      <point x="440" y="155"/>
      <point x="360" y="155" type="curve" smooth="yes"/>
      <point x="342" y="155"/>
      <point x="323" y="150"/>
      <point x="298" y="138" type="curve"/>
      <point x="298" y="412" type="line"/>
      <point x="519" y="412" type="line"/>
      <point x="519" y="526" type="line"/>
      <point x="298" y="526" type="line"/>
      <point x="298" y="681" type="line"/>
      <point x="160" y="659" type="line"/>
      <point x="160" y="526" type="line"/>
      <point x="40" y="526" type="line"/>
      <point x="40" y="412" type="line"/>
      <point x="160" y="412" type="line"/>
      <point x="160" y="50" type="line"/>
      <point x="160" y="44"/>
      <point x="160" y="36"/>
      <point x="160" y="29" type="curve"/>
      <point x="40" y="-103" type="line"/>
      <point x="116" y="-175" type="line"/>
      <point x="192" y="-94" type="line"/>
      <point x="215" y="-143"/>
      <point x="272" y="-185"/>
    </contour>
    <contour>
      <point x="354" y="-85" type="curve" smooth="yes"/>
      <point x="307" y="-85"/>
      <point x="298" y="-43"/>
      <point x="298" y="-2" type="curve" smooth="yes"/>
      <point x="298" y="30" type="line"/>
      <point x="312" y="43"/>
      <point x="342" y="52"/>
      <point x="354" y="52" type="curve" smooth="yes"/>
      <point x="388" y="52"/>
      <point x="410" y="25"/>
      <point x="410" y="-18" type="curve" smooth="yes"/>
      <point x="410" y="-57"/>
      <point x="388" y="-85"/>
    </contour>
  </outline>
</glyph>
<glyph name="Tdiagonalstroke" format="2">
  <advance width="560"/>
  <unicode hex="023E"/>
  <outline>
    <contour>
      <point x="71" y="-71" type="line"/>
      <point x="176" y="92" type="line"/>
      <point x="176" y="0" type="line"/>
      <point x="314" y="0" type="line"/>
      <point x="314" y="307" type="line"/>
      <point x="586" y="732" type="line"/>
      <point x="510" y="783" type="line"/>
      <point x="452" y="693" type="line"/>
      <point x="28" y="693" type="line"/>
      <point x="28" y="579" type="line"/>
      <point x="176" y="579" type="line"/>
      <point x="176" y="262" type="line"/>
      <point x="-4" y="-20" type="line"/>
    </contour>
    <contour>
      <point x="314" y="477" type="line"/>
      <point x="314" y="579" type="line"/>
      <point x="379" y="579" type="line"/>
    </contour>
  </outline>
</glyph>
<glyph name="ogonek" format="2">
  <advance width="560"/>
  <unicode hex="02DB"/>
  <outline>
    <contour>
      <point x="283" y="-190" type="curve" smooth="yes"/>
      <point x="325" y="-190"/>
      <point x="367" y="-183"/>
      <point x="388" y="-175" type="curve"/>
      <point x="380" y="-110" type="line"/>
      <point x="357" y="-116"/>
      <point x="342" y="-118"/>
      <point x="329" y="-118" type="curve" smooth="yes"/>
      <point x="306" y="-118"/>
      <point x="299" y="-105"/>
      <point x="299" y="-91" type="curve" smooth="yes"/>
      <point x="299" y="-56"/>
      <point x="370" y="-1"/>
      <point x="390" y="15" type="curve"/>
      <point x="273" y="15" type="line"/>
      <point x="220" y="-18"/>
      <point x="183" y="-74"/>
      <point x="183" y="-119" type="curve" smooth="yes"/>
      <point x="183" y="-159"/>
      <point x="212" y="-190"/>
    </contour>
  </outline>
</glyph>
<glyph name="breveinvertedcomb" format="2">
  <unicode hex="0311"/>
  <anchor x="280" y="526" name="_top"/>
  <outline>
    <contour>
      <point x="118" y="590" type="curve"/>
      <point x="220" y="590" type="line"/>
      <point x="223" y="646"/>
      <point x="248" y="661"/>
      <point x="280" y="661" type="curve" smooth="yes"/>
      <point x="312" y="661"/>
      <point x="337" y="646"/>
      <point x="342" y="590" type="curve"/>
      <point x="442" y="590" type="line"/>
      <point x="442" y="697"/>
      <point x="372" y="756"/>
      <point x="280" y="756" type="curve" smooth="yes"/>
      <point x="188" y="756"/>
      <point x="118" y="697"/>
    </contour>
  </outline>
</glyph>
<glyph name="commaturnedabovecomb" format="2">
  <unicode hex="0312"/>
  <anchor x="280" y="526" name="_top"/>
  <anchor x="280" y="793" name="top"/>
  <outline>
    <contour>
      <point x="189" y="599" type="curve"/>
      <point x="311" y="599" type="line"/>
      <point x="311" y="613" type="line"/>
      <point x="311" y="672"/>
      <point x="332" y="700"/>
      <point x="373" y="725" type="curve"/>
      <point x="324" y="793" type="line"/>
      <point x="232" y="769"/>
      <point x="178" y="710"/>
    </contour>
  </outline>
</glyph>
<glyph name="commaaccentcomb" format="2">
  <unicode hex="0326"/>
  <anchor x="280" y="0" name="_bottom"/>
  <anchor x="280" y="-190" name="bottom"/>
  <outline>
    <contour>
      <point x="245" y="-190" type="curve" smooth="yes"/>
      <point x="328" y="-190"/>
      <point x="376" y="-157"/>
      <point x="376" y="-85" type="curve" smooth="yes"/>
      <point x="376" y="-74"/>
      <point x="375" y="-63"/>
      <point x="373" y="-50" type="curve"/>
      <point x="267" y="-50" type="line"/>
      <point x="267" y="-58" type="line" smooth="yes"/>
      <point x="267" y="-106"/>
      <point x="241" y="-115"/>
      <point x="200" y="-116" type="curve"/>
      <point x="184" y="-116" type="line"/>
      <point x="184" y="-183" type="line"/>
      <point x="193" y="-186"/>
      <point x="225" y="-190"/>
    </contour>
  </outline>
</glyph>
<glyph name="Lambda" format="2">
  <advance width="560"/>
  <unicode hex="039B"/>
  <outline>
    <contour>
      <point x="10" y="0" type="curve"/>
      <point x="153" y="0" type="line"/>
      <point x="197" y="218"/>
      <point x="228" y="384"/>
      <point x="279" y="559" type="curve"/>
      <point x="328" y="398"/>
      <point x="356" y="218"/>
      <point x="402" y="0" type="curve"/>
      <point x="550" y="0" type="line"/>
      <point x="489" y="264"/>
      <point x="422" y="492"/>
      <point x="357" y="693" type="curve"/>
      <point x="207" y="693" type="line"/>
      <point x="144" y="492"/>
      <point x="76" y="273"/>
    </contour>
  </outline>
</glyph>
<glyph name="Xi" format="2">
  <advance width="560"/>
  <unicode hex="039E"/>
  <outline>
    <contour>
      <point x="36" y="0" type="line"/>
      <point x="524" y="0" type="line"/>
      <point x="524" y="116" type="line"/>
      <point x="36" y="116" type="line"/>
    </contour>
    <contour>
      <point x="80" y="308" type="line"/>
      <point x="482" y="308" type="line"/>
      <point x="482" y="424" type="line"/>
      <point x="80" y="424" type="line"/>
    </contour>
    <contour>
      <point x="36" y="577" type="line"/>
      <point x="524" y="577" type="line"/>
      <point x="524" y="693" type="line"/>
      <point x="36" y="693" type="line"/>
    </contour>
  </outline>
</glyph>
<glyph name="Sigma" format="2">
  <advance width="560"/>
  <unicode hex="03A3"/>
  <outline>
    <contour>
      <point x="31" y="0" type="line"/>
      <point x="526" y="0" type="line"/>
      <point x="526" y="114" type="line"/>
      <point x="200" y="114" type="line"/>
      <point x="246" y="169"/>
      <point x="370" y="304"/>
      <point x="410" y="351" type="curve"/>
      <point x="360" y="416"/>
      <point x="286" y="511"/>
      <point x="230" y="579" type="curve"/>
      <point x="525" y="579" type="line"/>
      <point x="525" y="693" type="line"/>
      <point x="46" y="693" type="line"/>
      <point x="46" y="609" type="line"/>
      <point x="100" y="548"/>
      <point x="199" y="433"/>
      <point x="260" y="351" type="curve"/>
      <point x="190" y="272"/>
      <point x="93" y="166"/>
      <point x="31" y="91" type="curve"/>
    </contour>
  </outline>
</glyph>
<glyph name="Psi" format="2">
  <advance width="560"/>
  <unicode hex="03A8"/>
  <outline>
    <contour>
      <point x="226" y="0" type="line"/>
      <point x="334" y="0" type="line"/>
      <point x="334" y="165" type="line"/>
      <point x="460" y="175"/>
      <point x="532" y="258"/>
      <point x="532" y="454" type="curve" smooth="yes"/>
      <point x="532" y="693" type="line"/>
      <point x="424" y="693" type="line"/>
      <point x="424" y="441" type="line" smooth="yes"/>
      <point x="424" y="297"/>
      <point x="385" y="269"/>
      <point x="334" y="269" type="curve"/>
      <point x="334" y="532" type="line"/>
      <point x="226" y="532" type="line"/>
      <point x="226" y="269" type="line"/>
      <point x="175" y="269"/>
      <point x="136" y="297"/>
      <point x="136" y="441" type="curve" smooth="yes"/>
      <point x="136" y="693" type="line"/>
      <point x="28" y="693" type="line"/>
      <point x="28" y="454" type="line" smooth="yes"/>
      <point x="28" y="258"/>
      <point x="100" y="175"/>
      <point x="226" y="165" type="curve"/>
    </contour>
  </outline>
</glyph>
<glyph name="alpha" format="2">
  <advance width="560"/>
  <unicode hex="03B1"/>
  <anchor x="280" y="582" name="top"/>
  <outline>
    <contour>
      <point x="252" y="-11" type="curve" smooth="yes"/>
      <point x="298" y="-11"/>
      <point x="349" y="4"/>
      <point x="400" y="39" type="curve"/>
      <point x="428" y="7"/>
      <point x="460" y="-11"/>
      <point x="523" y="-11" type="curve"/>
      <point x="542" y="103" type="line"/>
      <point x="501" y="108"/>
      <point x="486" y="121"/>
      <point x="486" y="188" type="curve" smooth="yes"/>
      <point x="486" y="508" type="line"/>
      <point x="421" y="529"/>
      <point x="361" y="538"/>
      <point x="307" y="538" type="curve" smooth="yes"/>
      <point x="146" y="538"/>
      <point x="45" y="444"/>
      <point x="45" y="248" type="curve" smooth="yes"/>
      <point x="45" y="80"/>
      <point x="136" y="-11"/>
    </contour>
    <contour>
      <point x="277" y="104" type="curve" smooth="yes"/>
      <point x="221" y="104"/>
      <point x="186" y="155"/>
      <point x="186" y="255" type="curve" smooth="yes"/>
      <point x="186" y="354"/>
      <point x="214" y="421"/>
      <point x="300" y="421" type="curve" smooth="yes"/>
      <point x="315" y="421"/>
      <point x="330" y="420"/>
      <point x="348" y="416" type="curve"/>
      <point x="348" y="213" type="line" smooth="yes"/>
      <point x="348" y="186"/>
      <point x="351" y="152"/>
      <point x="354" y="129" type="curve"/>
      <point x="326" y="112"/>
      <point x="300" y="104"/>
    </contour>
  </outline>
</glyph>
<glyph name="rho" format="2">
  <advance width="560"/>
  <unicode hex="03C1"/>
  <outline>
    <contour>
      <point x="71" y="-185" type="line"/>
      <point x="208" y="-185" type="line"/>
      <point x="208" y="15" type="line"/>
      <point x="233" y="0"/>
      <point x="265" y="-10"/>
      <point x="310" y="-10" type="curve" smooth="yes"/>
      <point x="451" y="-10"/>
      <point x="525" y="101"/>
      <point x="525" y="263" type="curve" smooth="yes"/>
      <point x="525" y="435"/>
      <point x="454" y="538"/>
      <point x="291" y="538" type="curve" smooth="yes"/>
      <point x="147" y="538"/>
      <point x="71" y="441"/>
      <point x="71" y="293" type="curve" smooth="yes"/>
    </contour>
    <contour>
      <point x="282" y="106" type="curve" smooth="yes"/>
      <point x="250" y="106"/>
      <point x="225" y="114"/>
      <point x="208" y="125" type="curve"/>
      <point x="208" y="299" type="line"/>
      <point x="208" y="386"/>
      <point x="249" y="421"/>
      <point x="296" y="421" type="curve" smooth="yes"/>
      <point x="357" y="421"/>
      <point x="384" y="372"/>
      <point x="384" y="269" type="curve" smooth="yes"/>
      <point x="384" y="161"/>
      <point x="346" y="106"/>
    </contour>
  </outline>
</glyph>
<glyph name="upsilon" format="2">
  <advance width="560"/>
  <unicode hex="03C5"/>
  <anchor x="280" y="582" name="top"/>
  <outline>
    <contour>
      <point x="279" y="-15" type="curve" smooth="yes"/>
      <point x="435" y="-15"/>
      <point x="501" y="60"/>
      <point x="501" y="227" type="curve" smooth="yes"/>
      <point x="501" y="526" type="line"/>
      <point x="361" y="526" type="line"/>
      <point x="361" y="244" type="line" smooth="yes"/>
      <point x="361" y="152"/>
      <point x="343" y="114"/>
      <point x="279" y="114" type="curve" smooth="yes"/>
      <point x="215" y="114"/>
      <point x="196" y="152"/>
      <point x="196" y="244" type="curve" smooth="yes"/>
      <point x="196" y="526" type="line"/>
      <point x="57" y="526" type="line"/>
      <point x="57" y="227" type="line" smooth="yes"/>
      <point x="57" y="60"/>
      <point x="124" y="-15"/>
    </contour>
  </outline>
</glyph>
<glyph name="psi" format="2">
  <advance width="560"/>
  <unicode hex="03C8"/>
  <outline>
    <contour>
      <point x="225" y="-185" type="line"/>
      <point x="333" y="-185" type="line"/>
      <point x="333" y="-12" type="line"/>
      <point x="459" y="-2"/>
      <point x="531" y="80"/>
      <point x="531" y="276" type="curve" smooth="yes"/>
      <point x="531" y="526" type="line"/>
      <point x="423" y="526" type="line"/>
      <point x="423" y="264" type="line" smooth="yes"/>
      <point x="423" y="120"/>
      <point x="384" y="92"/>
      <point x="333" y="92" type="curve"/>
      <point x="333" y="400" type="line"/>
      <point x="225" y="400" type="line"/>
      <point x="225" y="92" type="line"/>
      <point x="174" y="92"/>
      <point x="136" y="120"/>
      <point x="136" y="264" type="curve" smooth="yes"/>
      <point x="136" y="526" type="line"/>
      <point x="27" y="526" type="line"/>
      <point x="27" y="276" type="line" smooth="yes"/>
      <point x="27" y="80"/>
      <point x="99" y="-2"/>
      <point x="225" y="-12" type="curve"/>
    </contour>
  </outline>
</glyph>
<glyph name="omega" format="2">
  <advance width="560"/>
  <unicode hex="03C9"/>
  <anchor x="280" y="0" name="bottom"/>
  <anchor x="280" y="582" name="top"/>
  <outline>
    <contour>
      <point x="176" y="-10" type="curve" smooth="yes"/>
      <point x="220" y="-10"/>
      <point x="258" y="17"/>
      <point x="281" y="69" type="curve"/>
      <point x="305" y="17"/>
      <point x="337" y="-10"/>
      <point x="386" y="-10" type="curve" smooth="yes"/>
      <point x="500" y="-10"/>
      <point x="534" y="103"/>
      <point x="534" y="232" type="curve" smooth="yes"/>
      <point x="534" y="334"/>
      <point x="497" y="457"/>
      <point x="435" y="540" type="curve"/>
      <point x="342" y="498" type="line"/>
      <point x="393" y="413"/>
      <point x="414" y="309"/>
      <point x="414" y="228" type="curve" smooth="yes"/>
      <point x="414" y="156"/>
      <point x="396" y="104"/>
      <point x="376" y="104" type="curve" smooth="yes"/>
      <point x="346" y="104"/>
      <point x="335" y="147"/>
      <point x="335" y="228" type="curve" smooth="yes"/>
      <point x="335" y="311" type="line"/>
      <point x="227" y="311" type="line"/>
      <point x="227" y="228" type="line" smooth="yes"/>
      <point x="227" y="147"/>
      <point x="216" y="104"/>
      <point x="186" y="104" type="curve" smooth="yes"/>
      <point x="160" y="104"/>
      <point x="147" y="164"/>
      <point x="147" y="227" type="curve" smooth="yes"/>
      <point x="147" y="308"/>
      <point x="167" y="413"/>
      <point x="220" y="498" type="curve"/>
      <point x="128" y="540" type="line"/>
      <point x="63" y="449"/>
      <point x="28" y="334"/>
      <point x="28" y="232" type="curve" smooth="yes"/>
      <point x="28" y="103"/>
      <point x="64" y="-10"/>
    </contour>
  </outline>
</glyph>
<glyph name="Dje-cy" format="2">
  <advance width="560"/>
  <unicode hex="0402"/>
  <outline>
    <contour>
      <point x="360" y="-7" type="curve" smooth="yes"/>
      <point x="495" y="-7"/>
      <point x="545" y="80"/>
      <point x="545" y="218" type="curve" smooth="yes"/>
      <point x="545" y="363"/>
      <point x="450" y="437"/>
      <point x="317" y="437" type="curve" smooth="yes"/>
      <point x="295" y="437"/>
      <point x="271" y="435"/>
      <point x="248" y="430" type="curve"/>
      <point x="248" y="579" type="line"/>
      <point x="438" y="579" type="line"/>
      <point x="438" y="693" type="line"/>
      <point x="20" y="693" type="line"/>
      <point x="20" y="579" type="line"/>
      <point x="110" y="579" type="line"/>
      <point x="110" y="0" type="line"/>
      <point x="248" y="0" type="line"/>
      <point x="248" y="307" type="line"/>
      <point x="267" y="310"/>
      <point x="284" y="314"/>
      <point x="301" y="314" type="curve" smooth="yes"/>
      <point x="370" y="314"/>
      <point x="417" y="286"/>
      <point x="417" y="203" type="curve" smooth="yes"/>
      <point x="417" y="133"/>
      <point x="388" y="108"/>
      <point x="336" y="108" type="curve" smooth="yes"/>
      <point x="325" y="108"/>
      <point x="319" y="108"/>
      <point x="309" y="109" type="curve"/>
      <point x="304" y="-3" type="line"/>
      <point x="324" y="-6"/>
      <point x="342" y="-7"/>
    </contour>
  </outline>
</glyph>
<glyph name="Lje-cy" format="2">
  <advance width="560"/>
  <unicode hex="0409"/>
  <outline>
    <contour>
      <point x="20" y="-12" type="line"/>
      <point x="165" y="28"/>
      <point x="183" y="105"/>
      <point x="183" y="407" type="curve" smooth="yes"/>
      <point x="183" y="599" type="line"/>
      <point x="240" y="599" type="line"/>
      <point x="240" y="10" type="line"/>
      <point x="290" y="-4"/>
      <point x="317" y="-7"/>
      <point x="353" y="-7" type="curve" smooth="yes"/>
      <point x="451" y="-7"/>
      <point x="538" y="46"/>
      <point x="538" y="217" type="curve" smooth="yes"/>
      <point x="538" y="377"/>
      <point x="476" y="447"/>
      <point x="360" y="447" type="curve" smooth="yes"/>
      <point x="353" y="447"/>
      <point x="345" y="447"/>
      <point x="338" y="447" type="curve"/>
      <point x="338" y="693" type="line"/>
      <point x="84" y="693" type="line"/>
      <point x="84" y="560" type="line" smooth="yes"/>
      <point x="84" y="332"/>
      <point x="81" y="226"/>
      <point x="66" y="162" type="curve" smooth="yes"/>
      <point x="56" y="122"/>
      <point x="45" y="105"/>
      <point x="4" y="92" type="curve"/>
    </contour>
    <contour>
      <point x="358" y="83" type="curve" smooth="yes"/>
      <point x="352" y="83"/>
      <point x="345" y="84"/>
      <point x="338" y="86" type="curve"/>
      <point x="338" y="357" type="line"/>
      <point x="343" y="357"/>
      <point x="346" y="357"/>
      <point x="351" y="357" type="curve" smooth="yes"/>
      <point x="403" y="357"/>
      <point x="428" y="317"/>
      <point x="428" y="217" type="curve" smooth="yes"/>
      <point x="428" y="158"/>
      <point x="420" y="83"/>
    </contour>
  </outline>
</glyph>
<glyph name="Softsign-cy" format="2">
  <advance width="560"/>
  <unicode hex="042C"/>
  <outline>
    <contour>
      <point x="246" y="-9" type="curve" smooth="yes"/>
      <point x="419" y="-9"/>
      <point x="525" y="72"/>
      <point x="525" y="227" type="curve" smooth="yes"/>
      <point x="525" y="377"/>
      <point x="433" y="454"/>
      <point x="253" y="454" type="curve" smooth="yes"/>
      <point x="235" y="454"/>
      <point x="216" y="454"/>
      <point x="198" y="454" type="curve"/>
      <point x="198" y="693" type="line"/>
      <point x="60" y="693" type="line"/>
      <point x="60" y="12" type="line"/>
      <point x="128" y="-4"/>
      <point x="192" y="-9"/>
    </contour>
    <contour>
      <point x="253" y="115" type="curve" smooth="yes"/>
      <point x="231" y="115"/>
      <point x="211" y="115"/>
      <point x="198" y="116" type="curve"/>
      <point x="198" y="339" type="line"/>
      <point x="212" y="339"/>
      <point x="225" y="339"/>
      <point x="239" y="339" type="curve" smooth="yes"/>
      <point x="321" y="339"/>
      <point x="383" y="308"/>
      <point x="383" y="223" type="curve" smooth="yes"/>
      <point x="383" y="143"/>
      <point x="324" y="115"/>
    </contour>
  </outline>
</glyph>
<glyph name="Ereversed-cy" format="2">
  <advance width="560"/>
  <unicode hex="042D"/>
  <anchor x="280" y="685" name="top"/>
  <outline>
    <contour>
      <point x="234" y="-15" type="curve" smooth="yes"/>
      <point x="428" y="-15"/>
      <point x="542" y="127"/>
      <point x="542" y="347" type="curve" smooth="yes"/>
      <point x="542" y="587"/>
      <point x="421" y="709"/>
      <point x="240" y="709" type="curve" smooth="yes"/>
      <point x="143" y="709"/>
      <point x="76" y="672"/>
      <point x="56" y="659" type="curve"/>
      <point x="92" y="549" type="line"/>
      <point x="127" y="571"/>
      <point x="176" y="589"/>
      <point x="237" y="589" type="curve" smooth="yes"/>
      <point x="311" y="589"/>
      <point x="384" y="557"/>
      <point x="402" y="414" type="curve"/>
      <point x="172" y="414" type="line"/>
      <point x="172" y="290" type="line"/>
      <point x="403" y="290" type="line"/>
      <point x="391" y="181"/>
      <point x="333" y="105"/>
      <point x="227" y="105" type="curve" smooth="yes"/>
      <point x="156" y="105"/>
      <point x="109" y="125"/>
      <point x="82" y="142" type="curve"/>
      <point x="47" y="34" type="line"/>
      <point x="85" y="10"/>
      <point x="148" y="-15"/>
    </contour>
  </outline>
</glyph>
<glyph name="ze-cy" format="2">
  <advance width="560"/>
  <unicode hex="0437"/>
  <anchor x="280" y="0" name="bottom"/>
  <anchor x="280" y="582" name="top"/>
  <outline>
    <contour>
      <point x="260" y="-15" type="curve" smooth="yes"/>
      <point x="382" y="-15"/>
      <point x="487" y="28"/>
      <point x="487" y="147" type="curve" smooth="yes"/>
      <point x="487" y="211"/>
      <point x="459" y="251"/>
      <point x="401" y="276" type="curve"/>
      <point x="445" y="300"/>
      <point x="472" y="336"/>
      <point x="472" y="388" type="curve" smooth="yes"/>
      <point x="472" y="502"/>
      <point x="370" y="538"/>
      <point x="254" y="538" type="curve" smooth="yes"/>
      <point x="178" y="538"/>
      <point x="122" y="526"/>
      <point x="72" y="510" type="curve"/>
      <point x="99" y="395" type="line"/>
      <point x="132" y="404"/>
      <point x="193" y="418"/>
      <point x="255" y="418" type="curve" smooth="yes"/>
      <point x="321" y="418"/>
      <point x="342" y="391"/>
      <point x="342" y="366" type="curve" smooth="yes"/>
      <point x="342" y="342"/>
      <point x="323" y="317"/>
      <point x="267" y="317" type="curve" smooth="yes"/>
      <point x="148" y="317" type="line"/>
      <point x="148" y="213" type="line"/>
      <point x="267" y="213" type="line" smooth="yes"/>
      <point x="311" y="213"/>
      <point x="357" y="203"/>
      <point x="357" y="158" type="curve" smooth="yes"/>
      <point x="357" y="127"/>
      <point x="323" y="106"/>
      <point x="258" y="106" type="curve" smooth="yes"/>
      <point x="179" y="106"/>
      <point x="113" y="125"/>
      <point x="83" y="136" type="curve"/>
      <point x="57" y="22" type="line"/>
      <point x="111" y="0"/>
      <point x="186" y="-15"/>
    </contour>
  </outline>
</glyph>
<glyph name="ii-cy" format="2">
  <advance width="560"/>
  <unicode hex="0438"/>
  <anchor x="538" y="0" name="bottomright"/>
  <anchor x="280" y="582" name="top"/>
  <outline>
    <contour>
      <point x="71" y="0" type="line"/>
      <point x="180" y="0" type="line"/>
      <point x="248" y="131"/>
      <point x="297" y="218"/>
      <point x="366" y="323" type="curve"/>
      <point x="366" y="0" type="line"/>
      <point x="491" y="0" type="line"/>
      <point x="491" y="526" type="line"/>
      <point x="380" y="526" type="line"/>
      <point x="297" y="416"/>
      <point x="242" y="323"/>
      <point x="194" y="227" type="curve"/>
      <point x="194" y="526" type="line"/>
      <point x="71" y="526" type="line"/>
    </contour>
  </outline>
</glyph>
<glyph name="em-cy" format="2">
  <advance width="560"/>
  <unicode hex="043C"/>
  <outline>
    <contour>
      <point x="27" y="0" type="curve"/>
      <point x="153" y="0" type="line"/>
      <point x="151" y="124"/>
      <point x="150" y="248"/>
      <point x="148" y="372" type="curve"/>
      <point x="176" y="284"/>
      <point x="203" y="196"/>
      <point x="231" y="109" type="curve"/>
      <point x="332" y="109" type="line"/>
      <point x="360" y="196"/>
      <point x="388" y="284"/>
      <point x="416" y="372" type="curve"/>
      <point x="413" y="248"/>
      <point x="411" y="124"/>
      <point x="409" y="0" type="curve"/>
      <point x="535" y="0" type="line"/>
      <point x="531" y="181"/>
      <point x="516" y="342"/>
      <point x="494" y="526" type="curve"/>
      <point x="380" y="526" type="line"/>
      <point x="357" y="463"/>
      <point x="314" y="337"/>
      <point x="280" y="240" type="curve"/>
      <point x="248" y="340"/>
      <point x="203" y="463"/>
      <point x="181" y="526" type="curve"/>
      <point x="67" y="526" type="line"/>
      <point x="46" y="380"/>
      <point x="36" y="172"/>
    </contour>
  </outline>
</glyph>
<glyph name="che-cy" format="2">
  <advance width="560"/>
  <unicode hex="0447"/>
  <anchor x="538" y="0" name="bottomright"/>
  <anchor x="280" y="582" name="top"/>
  <outline>
    <contour>
      <point x="352" y="0" type="line"/>
      <point x="491" y="0" type="line"/>
      <point x="491" y="526" type="line"/>
      <point x="352" y="526" type="line"/>
      <point x="352" y="295" type="line"/>
      <point x="336" y="292"/>
      <point x="314" y="290"/>
      <point x="290" y="290" type="curve" smooth="yes"/>
      <point x="240" y="290"/>
      <point x="186" y="302"/>
      <point x="186" y="360" type="curve" smooth="yes"/>
      <point x="186" y="526" type="line"/>
      <point x="48" y="526" type="line"/>
      <point x="48" y="355" type="line" smooth="yes"/>
      <point x="48" y="206"/>
      <point x="144" y="166"/>
      <point x="261" y="166" type="curve" smooth="yes"/>
      <point x="290" y="166"/>
      <point x="320" y="168"/>
      <point x="352" y="172" type="curve"/>
    </contour>
  </outline>
</glyph>
<glyph name="ereversed-cy" format="2">
  <advance width="560"/>
  <unicode hex="044D"/>
  <anchor x="280" y="582" name="top"/>
  <outline>
    <contour>
      <point x="228" y="-12" type="curve" smooth="yes"/>
      <point x="396" y="-12"/>
      <point x="514" y="87"/>
      <point x="514" y="267" type="curve" smooth="yes"/>
      <point x="514" y="438"/>
      <point x="395" y="540"/>
      <point x="225" y="540" type="curve" smooth="yes"/>
      <point x="169" y="540"/>
      <point x="106" y="531"/>
      <point x="41" y="510" type="curve"/>
      <point x="71" y="398" type="line"/>
      <point x="116" y="413"/>
      <point x="152" y="420"/>
      <point x="207" y="420" type="curve" smooth="yes"/>
      <point x="282" y="420"/>
      <point x="352" y="391"/>
      <point x="372" y="317" type="curve"/>
      <point x="155" y="317" type="line"/>
      <point x="155" y="213" type="line"/>
      <point x="373" y="213" type="line"/>
      <point x="356" y="137"/>
      <point x="276" y="108"/>
      <point x="200" y="108" type="curve" smooth="yes"/>
      <point x="149" y="108"/>
      <point x="97" y="121"/>
      <point x="55" y="134" type="curve"/>
      <point x="27" y="21" type="line"/>
      <point x="99" y="-4"/>
      <point x="157" y="-12"/>
    </contour>
  </outline>
</glyph>
<glyph name="nje-cy" format="2">
  <advance width="560"/>
  <unicode hex="045A"/>
  <outline>
    <contour>
      <point x="366" y="-12" type="curve" smooth="yes"/>
      <point x="459" y="-12"/>
      <point x="539" y="30"/>
      <point x="539" y="161" type="curve" smooth="yes"/>
      <point x="539" y="270"/>
      <point x="492" y="337"/>
      <point x="398" y="337" type="curve" smooth="yes"/>
      <point x="380" y="337"/>
      <point x="360" y="334"/>
      <point x="338" y="329" type="curve"/>
      <point x="338" y="526" type="line"/>
      <point x="240" y="526" type="line"/>
      <point x="240" y="318" type="line"/>
      <point x="149" y="318" type="line"/>
      <point x="149" y="526" type="line"/>
      <point x="52" y="526" type="line"/>
      <point x="52" y="0" type="line"/>
      <point x="149" y="0" type="line"/>
      <point x="149" y="224" type="line"/>
      <point x="240" y="224" type="line"/>
      <point x="240" y="10" type="line"/>
      <point x="280" y="-3"/>
      <point x="325" y="-12"/>
    </contour>
    <contour>
      <point x="368" y="80" type="curve" smooth="yes"/>
      <point x="360" y="80"/>
      <point x="349" y="80"/>
      <point x="338" y="83" type="curve"/>
      <point x="338" y="242" type="line"/>
      <point x="349" y="246"/>
      <point x="360" y="248"/>
      <point x="370" y="248" type="curve" smooth="yes"/>
      <point x="410" y="248"/>
      <point x="429" y="216"/>
      <point x="429" y="165" type="curve" smooth="yes"/>
      <point x="429" y="108"/>
      <point x="411" y="80"/>
    </contour>
  </outline>
</glyph>
<glyph name="Iishorttail-cy" format="2">
  <advance width="560"/>
  <unicode hex="048A"/>
  <outline>
    <contour>
      <point x="418" y="-189" type="line"/>
      <point x="497" y="-109"/>
      <point x="551" y="0"/>
      <point x="551" y="132" type="curve"/>
      <point x="511" y="132" type="line"/>
      <point x="511" y="693" type="line"/>
      <point x="401" y="693" type="line"/>
      <point x="318" y="562"/>
      <point x="224" y="372"/>
      <point x="176" y="267" type="curve"/>
      <point x="176" y="693" type="line"/>
      <point x="52" y="693" type="line"/>
      <point x="52" y="0" type="line"/>
      <point x="162" y="0" type="line"/>
      <point x="228" y="161"/>
      <point x="302" y="307"/>
      <point x="388" y="460" type="curve"/>
      <point x="388" y="0" type="line"/>
      <point x="416" y="0" type="line"/>
      <point x="400" y="-44"/>
      <point x="372" y="-90"/>
      <point x="336" y="-137" type="curve"/>
    </contour>
    <contour>
      <point x="281" y="754" type="curve" smooth="yes"/>
      <point x="366" y="754"/>
      <point x="446" y="806"/>
      <point x="454" y="896" type="curve"/>
      <point x="352" y="923" type="line"/>
      <point x="342" y="870"/>
      <point x="315" y="855"/>
      <point x="281" y="855" type="curve" smooth="yes"/>
      <point x="248" y="855"/>
      <point x="221" y="874"/>
      <point x="211" y="924" type="curve"/>
      <point x="108" y="897" type="line"/>
      <point x="115" y="808"/>
      <point x="197" y="754"/>
    </contour>
  </outline>
</glyph>
<glyph name="iishorttail-cy" format="2">
  <advance width="560"/>
  <unicode hex="048B"/>
  <outline>
    <contour>
      <point x="407" y="-166" type="line"/>
      <point x="483" y="-99"/>
      <point x="531" y="9"/>
      <point x="531" y="122" type="curve"/>
      <point x="491" y="122" type="line"/>
      <point x="491" y="526" type="line"/>
      <point x="380" y="526" type="line"/>
      <point x="297" y="416"/>
      <point x="242" y="323"/>
      <point x="194" y="227" type="curve"/>
      <point x="194" y="526" type="line"/>
      <point x="71" y="526" type="line"/>
      <point x="71" y="0" type="line"/>
      <point x="180" y="0" type="line"/>
      <point x="248" y="131"/>
      <point x="297" y="218"/>
      <point x="366" y="323" type="curve"/>
      <point x="366" y="0" type="line"/>
      <point x="394" y="0" type="line"/>
      <point x="379" y="-37"/>
      <point x="351" y="-82"/>
      <point x="324" y="-114" type="curve"/>
    </contour>
    <contour>
      <point x="280" y="598" type="curve" smooth="yes"/>
      <point x="365" y="598"/>
      <point x="445" y="650"/>
      <point x="454" y="740" type="curve"/>
      <point x="351" y="767" type="line"/>
      <point x="342" y="715"/>
      <point x="314" y="698"/>
      <point x="280" y="698" type="curve" smooth="yes"/>
      <point x="248" y="698"/>
      <point x="220" y="717"/>
      <point x="211" y="768" type="curve"/>
      <point x="108" y="741" type="line"/>
      <point x="114" y="651"/>
      <point x="196" y="598"/>
    </contour>
  </outline>
</glyph>
<glyph name="zedescender-cy" format="2">
  <advance width="560"/>
  <unicode hex="0499"/>
  <outline>
    <contour>
      <point x="236" y="-190" type="curve" smooth="yes"/>
      <point x="304" y="-190"/>
      <point x="371" y="-169"/>
      <point x="371" y="-102" type="curve" smooth="yes"/>
      <point x="371" y="-75"/>
      <point x="354" y="-41"/>
      <point x="305" y="-27" type="curve"/>
      <point x="307" y="-21"/>
      <point x="310" y="-17"/>
      <point x="312" y="-11" type="curve"/>
      <point x="410" y="0"/>
      <point x="487" y="45"/>
      <point x="487" y="147" type="curve" smooth="yes"/>
      <point x="487" y="211"/>
      <point x="459" y="251"/>
      <point x="401" y="276" type="curve"/>
      <point x="445" y="300"/>
      <point x="472" y="336"/>
      <point x="472" y="388" type="curve" smooth="yes"/>
      <point x="472" y="502"/>
      <point x="370" y="538"/>
      <point x="254" y="538" type="curve" smooth="yes"/>
      <point x="178" y="538"/>
      <point x="122" y="526"/>
      <point x="72" y="510" type="curve"/>
      <point x="99" y="395" type="line"/>
      <point x="132" y="404"/>
      <point x="193" y="418"/>
      <point x="255" y="418" type="curve" smooth="yes"/>
      <point x="321" y="418"/>
      <point x="342" y="391"/>
      <point x="342" y="366" type="curve" smooth="yes"/>
      <point x="342" y="342"/>
      <point x="323" y="317"/>
      <point x="267" y="317" type="curve" smooth="yes"/>
      <point x="148" y="317" type="line"/>
      <point x="148" y="213" type="line"/>
      <point x="267" y="213" type="line" smooth="yes"/>
      <point x="311" y="213"/>
      <point x="357" y="203"/>
      <point x="357" y="158" type="curve" smooth="yes"/>
      <point x="357" y="127"/>
      <point x="323" y="106"/>
      <point x="258" y="106" type="curve" smooth="yes"/>
      <point x="179" y="106"/>
      <point x="113" y="125"/>
      <point x="83" y="136" type="curve"/>
      <point x="57" y="22" type="line"/>
      <point x="102" y="3"/>
      <point x="160" y="-9"/>
      <point x="221" y="-13" type="curve"/>
      <point x="215" y="-25"/>
      <point x="211" y="-37"/>
      <point x="207" y="-48" type="curve"/>
      <point x="230" y="-55" type="line" smooth="yes"/>
      <point x="258" y="-64"/>
      <point x="270" y="-75"/>
      <point x="270" y="-90" type="curve" smooth="yes"/>
      <point x="270" y="-109"/>
      <point x="253" y="-118"/>
      <point x="224" y="-118" type="curve" smooth="yes"/>
      <point x="200" y="-118"/>
      <point x="170" y="-110"/>
      <point x="161" y="-108" type="curve"/>
      <point x="147" y="-178" type="line"/>
      <point x="171" y="-186"/>
      <point x="204" y="-190"/>
    </contour>
  </outline>
</glyph>
<glyph name="kastroke-cy" format="2">
  <advance width="560"/>
  <unicode hex="049F"/>
  <outline>
    <contour>
      <point x="71" y="0" type="line"/>
      <point x="209" y="0" type="line"/>
      <point x="209" y="249" type="line"/>
      <point x="267" y="195"/>
      <point x="351" y="76"/>
      <point x="388" y="0" type="curve"/>
      <point x="545" y="0" type="line"/>
      <point x="510" y="88"/>
      <point x="395" y="222"/>
      <point x="321" y="295" type="curve"/>
      <point x="399" y="361"/>
      <point x="494" y="457"/>
      <point x="535" y="526" type="curve"/>
      <point x="370" y="526" type="line"/>
      <point x="340" y="472"/>
      <point x="274" y="380"/>
      <point x="209" y="318" type="curve"/>
      <point x="209" y="454" type="line"/>
      <point x="284" y="454" type="line"/>
      <point x="284" y="526" type="line"/>
      <point x="209" y="526" type="line"/>
      <point x="209" y="571" type="line"/>
      <point x="71" y="571" type="line"/>
      <point x="71" y="526" type="line"/>
      <point x="20" y="526" type="line"/>
      <point x="20" y="454" type="line"/>
      <point x="71" y="454" type="line"/>
    </contour>
  </outline>
</glyph>
<glyph name="kabashkir-cy" format="2">
  <advance width="560"/>
  <unicode hex="04A1"/>
  <outline>
    <contour>
      <point x="106" y="0" type="line"/>
      <point x="244" y="0" type="line"/>
      <point x="244" y="249" type="line"/>
      <point x="290" y="195"/>
      <point x="358" y="76"/>
      <point x="388" y="0" type="curve"/>
      <point x="545" y="0" type="line"/>
      <point x="505" y="85"/>
      <point x="416" y="236"/>
      <point x="346" y="295" type="curve"/>
      <point x="407" y="360"/>
      <point x="487" y="457"/>
      <point x="525" y="526" type="curve"/>
      <point x="360" y="526" type="line"/>
      <point x="338" y="476"/>
      <point x="286" y="380"/>
      <point x="244" y="318" type="curve"/>
      <point x="244" y="526" type="line"/>
      <point x="20" y="526" type="line"/>
      <point x="20" y="412" type="line"/>
      <point x="106" y="412" type="line"/>
    </contour>
  </outline>
</glyph>
<glyph name="Pemiddlehook-cy" format="2">
  <advance width="560"/>
  <unicode hex="04A6"/>
  <outline>
    <contour>
      <point x="352" y="-185" type="curve" smooth="yes"/>
      <point x="488" y="-185"/>
      <point x="535" y="-62"/>
      <point x="535" y="131" type="curve" smooth="yes"/>
      <point x="535" y="348"/>
      <point x="473" y="444"/>
      <point x="363" y="444" type="curve" smooth="yes"/>
      <point x="352" y="444"/>
      <point x="342" y="441"/>
      <point x="330" y="440" type="curve"/>
      <point x="330" y="693" type="line"/>
      <point x="40" y="693" type="line"/>
      <point x="40" y="0" type="line"/>
      <point x="148" y="0" type="line"/>
      <point x="148" y="589" type="line"/>
      <point x="222" y="589" type="line"/>
      <point x="222" y="0" type="line"/>
      <point x="330" y="0" type="line"/>
      <point x="330" y="337" type="line"/>
      <point x="335" y="338"/>
      <point x="342" y="339"/>
      <point x="347" y="339" type="curve" smooth="yes"/>
      <point x="394" y="339"/>
      <point x="427" y="301"/>
      <point x="427" y="127" type="curve" smooth="yes"/>
      <point x="427" y="-32"/>
      <point x="398" y="-81"/>
      <point x="346" y="-81" type="curve" smooth="yes"/>
      <point x="335" y="-81"/>
      <point x="329" y="-81"/>
      <point x="319" y="-80" type="curve"/>
      <point x="314" y="-183" type="line"/>
      <point x="327" y="-184"/>
      <point x="340" y="-185"/>
    </contour>
  </outline>
</glyph>
<glyph name="Ustraightstroke-cy" format="2">
  <advance width="560"/>
  <unicode hex="04B0"/>
  <outline>
    <contour>
      <point x="212" y="0" type="line"/>
      <point x="351" y="0" type="line"/>
      <point x="351" y="185" type="line"/>
      <point x="492" y="185" type="line"/>
      <point x="492" y="277" type="line"/>
      <point x="357" y="277" type="line"/>
      <point x="439" y="418"/>
      <point x="492" y="545"/>
      <point x="547" y="693" type="curve"/>
      <point x="404" y="693" type="line"/>
      <point x="373" y="597"/>
      <point x="318" y="445"/>
      <point x="284" y="376" type="curve"/>
      <point x="240" y="468"/>
      <point x="197" y="586"/>
      <point x="162" y="693" type="curve"/>
      <point x="15" y="693" type="line"/>
      <point x="71" y="547"/>
      <point x="127" y="417"/>
      <point x="204" y="277" type="curve"/>
      <point x="73" y="277" type="line"/>
      <point x="73" y="185" type="line"/>
      <point x="212" y="185" type="line"/>
    </contour>
  </outline>
</glyph>
<glyph name="Cheverticalstroke-cy" format="2">
  <advance width="560"/>
  <unicode hex="04B8"/>
  <outline>
    <contour>
      <point x="372" y="0" type="line"/>
      <point x="510" y="0" type="line"/>
      <point x="510" y="693" type="line"/>
      <point x="372" y="693" type="line"/>
      <point x="372" y="352" type="line"/>
      <point x="354" y="348"/>
      <point x="333" y="346"/>
      <point x="314" y="345" type="curve"/>
      <point x="314" y="473" type="line"/>
      <point x="237" y="473" type="line"/>
      <point x="237" y="349" type="line"/>
      <point x="190" y="362"/>
      <point x="168" y="399"/>
      <point x="168" y="485" type="curve" smooth="yes"/>
      <point x="168" y="693" type="line"/>
      <point x="30" y="693" type="line"/>
      <point x="30" y="482" type="line" smooth="yes"/>
      <point x="30" y="292"/>
      <point x="114" y="232"/>
      <point x="237" y="225" type="curve"/>
      <point x="237" y="108" type="line"/>
      <point x="314" y="108" type="line"/>
      <point x="314" y="225" type="line"/>
      <point x="333" y="227"/>
      <point x="352" y="228"/>
      <point x="372" y="232" type="curve"/>
    </contour>
  </outline>
</glyph>
<glyph name="Shha-cy" format="2">
  <advance width="560"/>
  <unicode hex="04BA"/>
  <anchor x="538" y="0" name="bottomright"/>
  <outline>
    <contour>
      <point x="60" y="0" type="line"/>
      <point x="198" y="0" type="line"/>
      <point x="198" y="337" type="line"/>
      <point x="223" y="342"/>
      <point x="256" y="345"/>
      <point x="276" y="345" type="curve" smooth="yes"/>
      <point x="348" y="345"/>
      <point x="382" y="316"/>
      <point x="382" y="204" type="curve"/>
      <point x="382" y="0" type="line"/>
      <point x="520" y="0" type="line"/>
      <point x="520" y="212" type="line" smooth="yes"/>
      <point x="520" y="416"/>
      <point x="427" y="469"/>
      <point x="296" y="469" type="curve" smooth="yes"/>
      <point x="267" y="469"/>
      <point x="232" y="466"/>
      <point x="198" y="461" type="curve"/>
      <point x="198" y="693" type="line"/>
      <point x="60" y="693" type="line"/>
    </contour>
  </outline>
</glyph>
<glyph name="cheabkhasian-cy" format="2">
  <advance width="560"/>
  <unicode hex="04BD"/>
  <outline>
    <contour>
      <point x="377" y="-12" type="curve" smooth="yes"/>
      <point x="422" y="-12"/>
      <point x="458" y="0"/>
      <point x="491" y="17" type="curve"/>
      <point x="472" y="124" type="line"/>
      <point x="450" y="112"/>
      <point x="416" y="99"/>
      <point x="382" y="99" type="curve" smooth="yes"/>
      <point x="326" y="99"/>
      <point x="272" y="128"/>
      <point x="272" y="218" type="curve"/>
      <point x="519" y="218" type="line"/>
      <point x="520" y="233"/>
      <point x="521" y="252"/>
      <point x="521" y="270" type="curve" smooth="yes"/>
      <point x="521" y="446"/>
      <point x="456" y="540"/>
      <point x="336" y="540" type="curve" smooth="yes"/>
      <point x="253" y="540"/>
      <point x="180" y="468"/>
      <point x="158" y="332" type="curve"/>
      <point x="125" y="340"/>
      <point x="116" y="366"/>
      <point x="116" y="393" type="curve" smooth="yes"/>
      <point x="116" y="407"/>
      <point x="118" y="423"/>
      <point x="122" y="440" type="curve"/>
      <point x="19" y="456" type="line"/>
      <point x="12" y="433"/>
      <point x="10" y="412"/>
      <point x="10" y="396" type="curve" smooth="yes"/>
      <point x="10" y="304"/>
      <point x="45" y="249"/>
      <point x="153" y="228" type="curve"/>
      <point x="162" y="69"/>
      <point x="241" y="-12"/>
    </contour>
    <contour>
      <point x="272" y="314" type="line"/>
      <point x="272" y="384"/>
      <point x="304" y="430"/>
      <point x="338" y="430" type="curve" smooth="yes"/>
      <point x="374" y="430"/>
      <point x="403" y="389"/>
      <point x="403" y="314" type="curve"/>
    </contour>
  </outline>
</glyph>
<glyph name="Etaprosgegrammeni" format="2">
  <advance width="560"/>
  <unicode hex="1FCC"/>
  <outline>
    <contour>
      <point x="20" y="0" type="line"/>
      <point x="128" y="0" type="line"/>
      <point x="128" y="316" type="line"/>
      <point x="242" y="316" type="line"/>
      <point x="242" y="0" type="line"/>
      <point x="351" y="0" type="line"/>
      <point x="351" y="693" type="line"/>
      <point x="242" y="693" type="line"/>
      <point x="242" y="410" type="line"/>
      <point x="128" y="410" type="line"/>
      <point x="128" y="693" type="line"/>
      <point x="20" y="693" type="line"/>
    </contour>
    <contour>
      <point x="544" y="-11" type="curve"/>
      <point x="559" y="83" type="line"/>
      <point x="517" y="88"/>
      <point x="510" y="115"/>
      <point x="510" y="162" type="curve" smooth="yes"/>
      <point x="510" y="526" type="line"/>
      <point x="402" y="526" type="line"/>
      <point x="402" y="175" type="line" smooth="yes"/>
      <point x="402" y="72"/>
      <point x="424" y="4"/>
    </contour>
  </outline>
</glyph>
<glyph name="quoteleft" format="2">
  <advance width="560"/>
  <unicode hex="2018"/>
  <outline>
    <contour>
      <point x="261" y="447" type="curve" smooth="yes"/>
      <point x="319" y="447"/>
      <point x="362" y="488"/>
      <point x="362" y="547" type="curve" smooth="yes"/>
      <point x="362" y="594"/>
      <point x="328" y="641"/>
      <point x="272" y="645" type="curve"/>
      <point x="297" y="702"/>
      <point x="355" y="706"/>
      <point x="409" y="716" type="curve"/>
      <point x="391" y="805" type="line"/>
      <point x="224" y="784"/>
      <point x="161" y="666"/>
      <point x="161" y="563" type="curve" smooth="yes"/>
      <point x="161" y="493"/>
      <point x="199" y="447"/>
    </contour>
  </outline>
</glyph>
<glyph name="quoteright" format="2">
  <advance width="560"/>
  <unicode hex="2019"/>
  <outline>
    <contour>
      <point x="179" y="465" type="line"/>
      <point x="346" y="486"/>
      <point x="409" y="604"/>
      <point x="409" y="707" type="curve" smooth="yes"/>
      <point x="409" y="777"/>
      <point x="371" y="823"/>
      <point x="309" y="823" type="curve" smooth="yes"/>
      <point x="251" y="823"/>
      <point x="208" y="782"/>
      <point x="208" y="724" type="curve" smooth="yes"/>
      <point x="208" y="676"/>
      <point x="242" y="631"/>
      <point x="298" y="625" type="curve"/>
      <point x="274" y="568"/>
      <point x="215" y="566"/>
      <point x="161" y="554" type="curve"/>
    </contour>
  </outline>
</glyph>
<glyph name="quotesinglbase" format="2">
  <advance width="560"/>
  <unicode hex="201A"/>
  <outline>
    <contour>
      <point x="159" y="-171" type="line"/>
      <point x="326" y="-150"/>
      <point x="389" y="-32"/>
      <point x="389" y="71" type="curve" smooth="yes"/>
      <point x="389" y="141"/>
      <point x="351" y="187"/>
      <point x="289" y="187" type="curve" smooth="yes"/>
      <point x="231" y="187"/>
      <point x="188" y="146"/>
      <point x="188" y="87" type="curve" smooth="yes"/>
      <point x="188" y="40"/>
      <point x="222" y="-6"/>
      <point x="278" y="-11" type="curve"/>
      <point x="254" y="-68"/>
      <point x="195" y="-71"/>
      <point x="141" y="-82" type="curve"/>
    </contour>
  </outline>
</glyph>
<glyph name="quotedblright" format="2">
  <advance width="560"/>
  <unicode hex="201D"/>
  <outline>
    <contour>
      <point x="317" y="501" type="line"/>
      <point x="454" y="510"/>
      <point x="525" y="623"/>
      <point x="525" y="710" type="curve" smooth="yes"/>
      <point x="525" y="764"/>
      <point x="497" y="809"/>
      <point x="439" y="809" type="curve" smooth="yes"/>
      <point x="398" y="809"/>
      <point x="357" y="781"/>
      <point x="357" y="729" type="curve" smooth="yes"/>
      <point x="357" y="691"/>
      <point x="381" y="653"/>
      <point x="431" y="650" type="curve"/>
      <point x="410" y="594"/>
      <point x="353" y="586"/>
      <point x="297" y="575" type="curve"/>
    </contour>
    <contour>
      <point x="53" y="501" type="line"/>
      <point x="190" y="510"/>
      <point x="261" y="623"/>
      <point x="261" y="710" type="curve" smooth="yes"/>
      <point x="261" y="764"/>
      <point x="233" y="809"/>
      <point x="175" y="809" type="curve" smooth="yes"/>
      <point x="134" y="809"/>
      <point x="93" y="781"/>
      <point x="93" y="729" type="curve" smooth="yes"/>
      <point x="93" y="691"/>
      <point x="116" y="653"/>
      <point x="167" y="650" type="curve"/>
      <point x="146" y="594"/>
      <point x="88" y="586"/>
      <point x="32" y="575" type="curve"/>
    </contour>
  </outline>
</glyph>
<glyph name="quotedblbase" format="2">
  <advance width="560"/>
  <unicode hex="201E"/>
  <outline>
    <contour>
      <point x="297" y="-161" type="line"/>
      <point x="435" y="-151"/>
      <point x="505" y="-38"/>
      <point x="505" y="49" type="curve" smooth="yes"/>
      <point x="505" y="103"/>
      <point x="477" y="147"/>
      <point x="419" y="147" type="curve" smooth="yes"/>
      <point x="379" y="147"/>
      <point x="337" y="120"/>
      <point x="337" y="68" type="curve" smooth="yes"/>
      <point x="337" y="30"/>
      <point x="361" y="-8"/>
      <point x="411" y="-12" type="curve"/>
      <point x="390" y="-67"/>
      <point x="333" y="-75"/>
      <point x="277" y="-86" type="curve"/>
    </contour>
    <contour>
      <point x="32" y="-161" type="line"/>
      <point x="170" y="-151"/>
      <point x="241" y="-38"/>
      <point x="241" y="49" type="curve" smooth="yes"/>
      <point x="241" y="103"/>
      <point x="213" y="147"/>
      <point x="155" y="147" type="curve" smooth="yes"/>
      <point x="114" y="147"/>
      <point x="73" y="120"/>
      <point x="73" y="68" type="curve" smooth="yes"/>
      <point x="73" y="30"/>
      <point x="97" y="-8"/>
      <point x="147" y="-12" type="curve"/>
      <point x="127" y="-67"/>
      <point x="69" y="-75"/>
      <point x="13" y="-86" type="curve"/>
    </contour>
  </outline>
</glyph>
<glyph name="tugrik" format="2">
  <advance width="560"/>
  <unicode hex="20AE"/>
  <outline>
    <contour>
      <point x="211" y="0" type="line"/>
      <point x="349" y="0" type="line"/>
      <point x="349" y="174" type="line"/>
      <point x="482" y="236" type="line"/>
      <point x="439" y="327" type="line"/>
      <point x="349" y="286" type="line"/>
      <point x="349" y="363" type="line"/>
      <point x="480" y="424" type="line"/>
      <point x="439" y="511" type="line"/>
      <point x="349" y="469" type="line"/>
      <point x="349" y="579" type="line"/>
      <point x="532" y="579" type="line"/>
      <point x="532" y="693" type="line"/>
      <point x="28" y="693" type="line"/>
      <point x="28" y="579" type="line"/>
      <point x="211" y="579" type="line"/>
      <point x="211" y="404" type="line"/>
      <point x="86" y="346" type="line"/>
      <point x="127" y="259" type="line"/>
      <point x="211" y="298" type="line"/>
      <point x="211" y="220" type="line"/>
      <point x="86" y="162" type="line"/>
      <point x="129" y="71" type="line"/>
      <point x="211" y="109" type="line"/>
    </contour>
  </outline>
</glyph>
<glyph name="oneninth" format="2">
  <advance width="560"/>
  <unicode hex="2151"/>
  <outline>
    <contour>
      <point x="35" y="0" type="line"/>
      <point x="147" y="0" type="line"/>
      <point x="502" y="693" type="line"/>
      <point x="390" y="693" type="line"/>
    </contour>
    <contour>
      <point x="326" y="-10" type="line"/>
      <point x="479" y="-10"/>
      <point x="556" y="46"/>
      <point x="556" y="168" type="curve" smooth="yes"/>
      <point x="556" y="252"/>
      <point x="493" y="290"/>
      <point x="432" y="290" type="curve" smooth="yes"/>
      <point x="355" y="290"/>
      <point x="314" y="248"/>
      <point x="314" y="185" type="curve" smooth="yes"/>
      <point x="314" y="127"/>
      <point x="349" y="95"/>
      <point x="427" y="95" type="curve" smooth="yes"/>
      <point x="435" y="95"/>
      <point x="446" y="96"/>
      <point x="456" y="99" type="curve"/>
      <point x="435" y="73"/>
      <point x="390" y="71"/>
      <point x="318" y="66" type="curve"/>
    </contour>
    <contour>
      <point x="433" y="161" type="curve" smooth="yes"/>
      <point x="407" y="161"/>
      <point x="395" y="172"/>
      <point x="395" y="190" type="curve" smooth="yes"/>
      <point x="395" y="207"/>
      <point x="407" y="220"/>
      <point x="427" y="220" type="curve" smooth="yes"/>
      <point x="448" y="220"/>
      <point x="472" y="213"/>
      <point x="473" y="167" type="curve"/>
      <point x="461" y="164"/>
      <point x="447" y="161"/>
    </contour>
    <contour>
      <point x="99" y="421" type="line"/>
      <point x="194" y="421" type="line"/>
      <point x="194" y="701" type="line"/>
      <point x="123" y="701" type="line"/>
      <point x="87" y="668"/>
      <point x="53" y="646"/>
      <point x="2" y="624" type="curve"/>
      <point x="24" y="558" type="line"/>
      <point x="52" y="566"/>
      <point x="69" y="573"/>
      <point x="99" y="589" type="curve"/>
    </contour>
  </outline>
</glyph>
<glyph name="onesixth" format="2">
  <advance width="560"/>
  <unicode hex="2159"/>
  <outline>
    <contour>
      <point x="43" y="0" type="line"/>
      <point x="155" y="0" type="line"/>
      <point x="510" y="693" type="line"/>
      <point x="398" y="693" type="line"/>
    </contour>
    <contour>
      <point x="421" y="60" type="curve" smooth="yes"/>
      <point x="400" y="60"/>
      <point x="377" y="66"/>
      <point x="375" y="113" type="curve"/>
      <point x="388" y="116"/>
      <point x="400" y="119"/>
      <point x="416" y="119" type="curve" smooth="yes"/>
      <point x="441" y="119"/>
      <point x="454" y="108"/>
      <point x="454" y="90" type="curve" smooth="yes"/>
      <point x="454" y="73"/>
      <point x="441" y="60"/>
    </contour>
    <contour>
      <point x="416" y="-10" type="curve" smooth="yes"/>
      <point x="493" y="-10"/>
      <point x="535" y="32"/>
      <point x="535" y="95" type="curve" smooth="yes"/>
      <point x="535" y="153"/>
      <point x="500" y="185"/>
      <point x="421" y="185" type="curve" smooth="yes"/>
      <point x="412" y="185"/>
      <point x="402" y="183"/>
      <point x="391" y="180" type="curve"/>
      <point x="413" y="206"/>
      <point x="458" y="209"/>
      <point x="530" y="214" type="curve"/>
      <point x="522" y="290" type="line"/>
      <point x="379" y="295"/>
      <point x="293" y="234"/>
      <point x="293" y="112" type="curve" smooth="yes"/>
      <point x="293" y="28"/>
      <point x="345" y="-10"/>
    </contour>
    <contour>
      <point x="99" y="421" type="line"/>
      <point x="194" y="421" type="line"/>
      <point x="194" y="701" type="line"/>
      <point x="123" y="701" type="line"/>
      <point x="87" y="668"/>
      <point x="53" y="646"/>
      <point x="2" y="624" type="curve"/>
      <point x="24" y="558" type="line"/>
      <point x="52" y="566"/>
      <point x="69" y="573"/>
      <point x="99" y="589" type="curve"/>
    </contour>
  </outline>
</glyph>
<glyph name="threeeighths" format="2">
  <advance width="560"/>
  <unicode hex="215C"/>
  <outline>
    <contour>
      <point x="45" y="0" type="line"/>
      <point x="157" y="0" type="line"/>
      <point x="512" y="693" type="line"/>
      <point x="400" y="693" type="line"/>
    </contour>
    <contour>
      <point x="429" y="58" type="curve" smooth="yes"/>
      <point x="407" y="58"/>
      <point x="385" y="65"/>
      <point x="385" y="82" type="curve" smooth="yes"/>
      <point x="385" y="95"/>
      <point x="392" y="106"/>
      <point x="408" y="115" type="curve"/>
      <point x="444" y="105"/>
      <point x="474" y="99"/>
      <point x="474" y="81" type="curve" smooth="yes"/>
      <point x="474" y="65"/>
      <point x="451" y="58"/>
    </contour>
    <contour>
      <point x="429" y="-8" type="curve" smooth="yes"/>
      <point x="524" y="-8"/>
      <point x="561" y="35"/>
      <point x="560" y="80" type="curve" smooth="yes"/>
      <point x="559" y="111"/>
      <point x="545" y="134"/>
      <point x="516" y="150" type="curve"/>
      <point x="542" y="167"/>
      <point x="551" y="188"/>
      <point x="551" y="213" type="curve" smooth="yes"/>
      <point x="551" y="264"/>
      <point x="491" y="290"/>
      <point x="430" y="290" type="curve" smooth="yes"/>
      <point x="370" y="290"/>
      <point x="309" y="264"/>
      <point x="309" y="209" type="curve" smooth="yes"/>
      <point x="309" y="179"/>
      <point x="323" y="159"/>
      <point x="343" y="144" type="curve"/>
      <point x="311" y="127"/>
      <point x="299" y="99"/>
      <point x="299" y="77" type="curve" smooth="yes"/>
      <point x="299" y="20"/>
      <point x="354" y="-8"/>
    </contour>
    <contour>
      <point x="444" y="177" type="curve"/>
      <point x="407" y="189"/>
      <point x="395" y="198"/>
      <point x="395" y="207" type="curve" smooth="yes"/>
      <point x="395" y="220"/>
      <point x="416" y="224"/>
      <point x="430" y="224" type="curve" smooth="yes"/>
      <point x="448" y="224"/>
      <point x="465" y="218"/>
      <point x="465" y="206" type="curve" smooth="yes"/>
      <point x="465" y="195"/>
      <point x="456" y="186"/>
    </contour>
    <contour>
      <point x="110" y="411" type="curve" smooth="yes"/>
      <point x="189" y="411"/>
      <point x="250" y="433"/>
      <point x="250" y="501" type="curve" smooth="yes"/>
      <point x="250" y="534"/>
      <point x="234" y="557"/>
      <point x="203" y="571" type="curve"/>
      <point x="224" y="585"/>
      <point x="236" y="606"/>
      <point x="236" y="634" type="curve" smooth="yes"/>
      <point x="236" y="673"/>
      <point x="202" y="709"/>
      <point x="124" y="709" type="curve" smooth="yes"/>
      <point x="80" y="709"/>
      <point x="34" y="697"/>
      <point x="12" y="681" type="curve"/>
      <point x="37" y="620" type="line"/>
      <point x="52" y="628"/>
      <point x="85" y="640"/>
      <point x="111" y="640" type="curve" smooth="yes"/>
      <point x="127" y="640"/>
      <point x="140" y="634"/>
      <point x="140" y="620" type="curve" smooth="yes"/>
      <point x="140" y="606"/>
      <point x="128" y="598"/>
      <point x="90" y="598" type="curve" smooth="yes"/>
      <point x="65" y="598" type="line"/>
      <point x="65" y="534" type="line"/>
      <point x="87" y="534" type="line" smooth="yes"/>
      <point x="131" y="534"/>
      <point x="155" y="526"/>
      <point x="155" y="505" type="curve" smooth="yes"/>
      <point x="155" y="486"/>
      <point x="137" y="482"/>
      <point x="102" y="482" type="curve" smooth="yes"/>
      <point x="72" y="482"/>
      <point x="40" y="492"/>
      <point x="24" y="498" type="curve"/>
      <point x="3" y="430" type="line"/>
      <point x="27" y="419"/>
      <point x="68" y="411"/>
    </contour>
  </outline>
</glyph>
<glyph name="integral" format="2">
  <advance width="560"/>
  <unicode hex="222B"/>
  <outline>
    <contour>
      <point x="136" y="-185" type="curve" smooth="yes"/>
      <point x="286" y="-185"/>
      <point x="351" y="-103"/>
      <point x="351" y="40" type="curve" smooth="yes"/>
      <point x="351" y="564" type="line" smooth="yes"/>
      <point x="351" y="618"/>
      <point x="372" y="654"/>
      <point x="428" y="654" type="curve" smooth="yes"/>
      <point x="506" y="654" type="line"/>
      <point x="506" y="774" type="line"/>
      <point x="482" y="776"/>
      <point x="429" y="777"/>
      <point x="426" y="777" type="curve" smooth="yes"/>
      <point x="276" y="777"/>
      <point x="211" y="696"/>
      <point x="211" y="552" type="curve"/>
      <point x="211" y="29" type="line" smooth="yes"/>
      <point x="211" y="-25"/>
      <point x="189" y="-60"/>
      <point x="133" y="-60" type="curve" smooth="yes"/>
      <point x="55" y="-60" type="line"/>
      <point x="55" y="-183" type="line"/>
      <point x="80" y="-184"/>
      <point x="132" y="-185"/>
    </contour>
  </outline>
</glyph>
<glyph name="crossMark" format="2">
  <advance width="560"/>
  <unicode hex="274C"/>
  <outline>
    <contour>
      <point x="110" y="0" type="line"/>
      <point x="280" y="204" type="line"/>
      <point x="450" y="0" type="line"/>
      <point x="532" y="70" type="line"/>
      <point x="350" y="288" type="line"/>
      <point x="532" y="506" type="line"/>
      <point x="450" y="576" type="line"/>
      <point x="280" y="372" type="line"/>
      <point x="110" y="576" type="line"/>
      <point x="28" y="506" type="line"/>
      <point x="210" y="288" type="line"/>
      <point x="28" y="70" type="line"/>
    </contour>
  </outline>
</glyph>
<glyph name="brevecomb.cyr" format="2">
  <anchor x="281" y="526" name="_top"/>
  <anchor x="281" y="768" name="top"/>
  <outline>
    <contour>
      <point x="280" y="598" type="curve" smooth="yes"/>
      <point x="365" y="598"/>
      <point x="445" y="650"/>
      <point x="454" y="740" type="curve"/>
      <point x="351" y="767" type="line"/>
      <point x="342" y="715"/>
      <point x="314" y="698"/>
      <point x="280" y="698" type="curve" smooth="yes"/>
      <point x="248" y="698"/>
      <point x="220" y="717"/>
      <point x="211" y="768" type="curve"/>
      <point x="108" y="741" type="line"/>
      <point x="114" y="651"/>
      <point x="196" y="598"/>
    </contour>
  </outline>
</glyph>
<glyph name="dollar.osf" format="2">
  <advance width="560"/>
  <outline>
    <contour>
      <point x="223" y="-90" type="line"/>
      <point x="344" y="-90" type="line"/>
      <point x="344" y="12" type="line"/>
      <point x="434" y="21"/>
      <point x="498" y="96"/>
      <point x="498" y="176" type="curve" smooth="yes"/>
      <point x="498" y="278"/>
      <point x="418" y="325"/>
      <point x="316" y="359" type="curve" smooth="yes"/>
      <point x="255" y="380"/>
      <point x="224" y="391"/>
      <point x="224" y="421" type="curve" smooth="yes"/>
      <point x="224" y="443"/>
      <point x="244" y="460"/>
      <point x="294" y="460" type="curve" smooth="yes"/>
      <point x="351" y="460"/>
      <point x="404" y="447"/>
      <point x="445" y="430" type="curve"/>
      <point x="474" y="545" type="line"/>
      <point x="449" y="557"/>
      <point x="403" y="570"/>
      <point x="344" y="577" type="curve"/>
      <point x="344" y="663" type="line"/>
      <point x="223" y="663" type="line"/>
      <point x="223" y="573" type="line"/>
      <point x="126" y="554"/>
      <point x="78" y="485"/>
      <point x="78" y="411" type="curve" smooth="yes"/>
      <point x="78" y="307"/>
      <point x="155" y="272"/>
      <point x="236" y="246" type="curve" smooth="yes"/>
      <point x="317" y="220"/>
      <point x="351" y="205"/>
      <point x="351" y="170" type="curve" smooth="yes"/>
      <point x="351" y="140"/>
      <point x="332" y="125"/>
      <point x="264" y="125" type="curve" smooth="yes"/>
      <point x="204" y="125"/>
      <point x="143" y="145"/>
      <point x="103" y="164" type="curve"/>
      <point x="61" y="54" type="line"/>
      <point x="88" y="40"/>
      <point x="141" y="17"/>
      <point x="223" y="9" type="curve"/>
    </contour>
  </outline>
</glyph>
<glyph name="dotaccentcomb_macroncomb" format="2">
  <anchor x="280" y="526" name="_top"/>
  <anchor x="280" y="832" name="top"/>
  <outline>
    <contour>
      <point x="150" y="740" type="line"/>
      <point x="410" y="740" type="line"/>
      <point x="410" y="820" type="line"/>
      <point x="150" y="820" type="line"/>
    </contour>
    <contour>
      <point x="280" y="587" type="curve" smooth="yes"/>
      <point x="315" y="587"/>
      <point x="344" y="612"/>
      <point x="344" y="650" type="curve" smooth="yes"/>
      <point x="344" y="689"/>
      <point x="315" y="713"/>
      <point x="280" y="713" type="curve" smooth="yes"/>
      <point x="245" y="713"/>
      <point x="216" y="689"/>
      <point x="216" y="650" type="curve" smooth="yes"/>
      <point x="216" y="612"/>
      <point x="245" y="587"/>
    </contour>
  </outline>
</glyph>
<glyph name="five.osf" format="2">
  <advance width="560"/>
  <outline>
    <contour>
      <point x="224" y="-119" type="curve" smooth="yes"/>
      <point x="408" y="-119"/>
      <point x="499" y="-23"/>
      <point x="499" y="105" type="curve" smooth="yes"/>
      <point x="499" y="244"/>
      <point x="407" y="325"/>
      <point x="223" y="336" type="curve"/>
      <point x="226" y="369"/>
      <point x="231" y="427"/>
      <point x="234" y="475" type="curve"/>
      <point x="473" y="475" type="line"/>
      <point x="473" y="589" type="line"/>
      <point x="119" y="589" type="line"/>
      <point x="114" y="477"/>
      <point x="106" y="355"/>
      <point x="91" y="231" type="curve"/>
      <point x="319" y="231"/>
      <point x="358" y="177"/>
      <point x="358" y="100" type="curve" smooth="yes"/>
      <point x="358" y="51"/>
      <point x="332" y="-1"/>
      <point x="223" y="-1" type="curve" smooth="yes"/>
      <point x="147" y="-1"/>
      <point x="98" y="16"/>
      <point x="65" y="32" type="curve"/>
      <point x="37" y="-83" type="line"/>
      <point x="69" y="-98"/>
      <point x="153" y="-119"/>
    </contour>
  </outline>
</glyph>
<glyph name="four.numr" format="2">
  <advance width="560"/>
  <outline>
    <contour>
      <point x="287" y="301" type="line"/>
      <point x="381" y="301" type="line"/>
      <point x="381" y="388" type="line"/>
      <point x="427" y="388" type="line"/>
      <point x="427" y="470" type="line"/>
      <point x="381" y="470" type="line"/>
      <point x="381" y="701" type="line"/>
      <point x="282" y="701" type="line"/>
      <point x="211" y="626"/>
      <point x="156" y="554"/>
      <point x="100" y="459" type="curve"/>
      <point x="100" y="388" type="line"/>
      <point x="287" y="388" type="line"/>
    </contour>
    <contour>
      <point x="205" y="470" type="line"/>
      <point x="228" y="517"/>
      <point x="256" y="556"/>
      <point x="287" y="590" type="curve"/>
      <point x="287" y="470" type="line"/>
    </contour>
  </outline>
</glyph>
<glyph name="four.osf" format="2">
  <advance width="560"/>
  <outline>
    <contour>
      <point x="319" y="-104" type="line"/>
      <point x="457" y="-104" type="line"/>
      <point x="457" y="60" type="line"/>
      <point x="532" y="60" type="line"/>
      <point x="532" y="173" type="line"/>
      <point x="457" y="173" type="line"/>
      <point x="457" y="589" type="line"/>
      <point x="334" y="589" type="line"/>
      <point x="214" y="469"/>
      <point x="88" y="277"/>
      <point x="30" y="160" type="curve"/>
      <point x="30" y="60" type="line"/>
      <point x="319" y="60" type="line"/>
    </contour>
    <contour>
      <point x="162" y="173" type="line"/>
      <point x="202" y="257"/>
      <point x="267" y="350"/>
      <point x="319" y="417" type="curve"/>
      <point x="319" y="173" type="line"/>
    </contour>
  </outline>
</glyph>
<glyph name="ijacute" format="2">
  <advance width="560"/>
  <outline>
    <contour>
      <point x="290" y="-185" type="curve" smooth="yes"/>
      <point x="418" y="-185"/>
      <point x="477" y="-120"/>
      <point x="477" y="19" type="curve" smooth="yes"/>
      <point x="477" y="526" type="line"/>
      <point x="338" y="526" type="line"/>
      <point x="338" y="15" type="line" smooth="yes"/>
      <point x="338" y="-38"/>
      <point x="323" y="-67"/>
      <point x="276" y="-67" type="curve" smooth="yes"/>
      <point x="251" y="-67"/>
      <point x="236" y="-65"/>
      <point x="216" y="-58" type="curve"/>
      <point x="197" y="-171" type="line"/>
      <point x="228" y="-183"/>
      <point x="271" y="-185"/>
    </contour>
    <contour>
      <point x="82" y="0" type="line"/>
      <point x="220" y="0" type="line"/>
      <point x="220" y="526" type="line"/>
      <point x="82" y="526" type="line"/>
    </contour>
    <component base="acute" xOffset="140"/>
    <component base="acute" xOffset="-118"/>
  </outline>
</glyph>
<glyph name="kgreenlandic.case" format="2">
  <advance width="560"/>
  <anchor x="280" y="0" name="bottom"/>
  <anchor x="280" y="685" name="top"/>
  <outline>
    <contour>
      <point x="50" y="0" type="line"/>
      <point x="178" y="0" type="line"/>
      <point x="178" y="317" type="line"/>
      <point x="231" y="250"/>
      <point x="298" y="105"/>
      <point x="323" y="0" type="curve"/>
      <point x="468" y="0" type="line"/>
      <point x="433" y="112"/>
      <point x="367" y="269"/>
      <point x="261" y="370" type="curve"/>
      <point x="346" y="486"/>
      <point x="414" y="613"/>
      <point x="444" y="693" type="curve"/>
      <point x="298" y="693" type="line"/>
      <point x="276" y="613"/>
      <point x="223" y="491"/>
      <point x="178" y="405" type="curve"/>
      <point x="178" y="693" type="line"/>
      <point x="50" y="693" type="line"/>
    </contour>
    <contour>
      <point x="451" y="495" type="curve"/>
      <point x="561" y="495" type="line"/>
      <point x="558" y="508"/>
      <point x="558" y="530"/>
      <point x="558" y="549" type="curve" smooth="yes"/>
      <point x="558" y="618"/>
      <point x="568" y="683"/>
      <point x="596" y="756" type="curve"/>
      <point x="519" y="774" type="line"/>
      <point x="477" y="704"/>
      <point x="454" y="657"/>
      <point x="448" y="558" type="curve" smooth="yes"/>
      <point x="447" y="539"/>
      <point x="449" y="516"/>
    </contour>
  </outline>
</glyph>
<glyph name="one.osf" format="2">
  <advance width="560"/>
  <outline>
    <contour>
      <point x="95" y="0" type="line"/>
      <point x="510" y="0" type="line"/>
      <point x="510" y="114" type="line"/>
      <point x="376" y="114" type="line"/>
      <point x="376" y="589" type="line"/>
      <point x="282" y="589" type="line"/>
      <point x="227" y="531"/>
      <point x="132" y="480"/>
      <point x="59" y="452" type="curve"/>
      <point x="104" y="338" type="line"/>
      <point x="141" y="351"/>
      <point x="197" y="371"/>
      <point x="239" y="398" type="curve"/>
      <point x="239" y="114" type="line"/>
      <point x="95" y="114" type="line"/>
    </contour>
  </outline>
</glyph>
<glyph name="ringcomb_acutecomb" format="2">
  <anchor x="280" y="526" name="_top"/>
  <anchor x="280" y="832" name="top"/>
  <outline>
    <contour>
      <point x="281" y="581" type="curve" smooth="yes"/>
      <point x="334" y="581"/>
      <point x="383" y="616"/>
      <point x="383" y="680" type="curve" smooth="yes"/>
      <point x="383" y="744"/>
      <point x="334" y="778"/>
      <point x="281" y="778" type="curve" smooth="yes"/>
      <point x="228" y="778"/>
      <point x="180" y="744"/>
      <point x="180" y="680" type="curve" smooth="yes"/>
      <point x="180" y="616"/>
      <point x="228" y="581"/>
    </contour>
    <contour>
      <point x="281" y="638" type="curve" smooth="yes"/>
      <point x="262" y="638"/>
      <point x="242" y="653"/>
      <point x="242" y="680" type="curve" smooth="yes"/>
      <point x="242" y="707"/>
      <point x="262" y="721"/>
      <point x="281" y="721" type="curve" smooth="yes"/>
      <point x="301" y="721"/>
      <point x="320" y="707"/>
      <point x="320" y="680" type="curve" smooth="yes"/>
      <point x="320" y="653"/>
      <point x="301" y="638"/>
    </contour>
    <contour>
      <point x="208" y="793" type="line"/>
      <point x="379" y="857" type="line"/>
      <point x="344" y="930" type="line"/>
      <point x="181" y="846" type="line"/>
    </contour>
  </outline>
</glyph>
<glyph name="six.osf" format="2">
  <advance width="560"/>
  <outline>
    <contour>
      <point x="290" y="-15" type="curve" smooth="yes"/>
      <point x="442" y="-15"/>
      <point x="510" y="115"/>
      <point x="510" y="222" type="curve" smooth="yes"/>
      <point x="510" y="343"/>
      <point x="449" y="444"/>
      <point x="288" y="444" type="curve" smooth="yes"/>
      <point x="267" y="444"/>
      <point x="239" y="436"/>
      <point x="211" y="424" type="curve"/>
      <point x="243" y="540"/>
      <point x="358" y="578"/>
      <point x="477" y="580" type="curve"/>
      <point x="469" y="698" type="line"/>
      <point x="217" y="698"/>
      <point x="52" y="551"/>
      <point x="52" y="283" type="curve" smooth="yes"/>
      <point x="52" y="81"/>
      <point x="136" y="-15"/>
    </contour>
    <contour>
      <point x="287" y="104" type="curve" smooth="yes"/>
      <point x="208" y="104"/>
      <point x="187" y="186"/>
      <point x="187" y="271" type="curve" smooth="yes"/>
      <point x="187" y="286"/>
      <point x="188" y="299"/>
      <point x="189" y="312" type="curve"/>
      <point x="208" y="323"/>
      <point x="242" y="329"/>
      <point x="270" y="329" type="curve" smooth="yes"/>
      <point x="347" y="329"/>
      <point x="375" y="289"/>
      <point x="375" y="220" type="curve" smooth="yes"/>
      <point x="375" y="169"/>
      <point x="349" y="104"/>
    </contour>
  </outline>
</glyph>
<glyph name="yen.osf" format="2">
  <advance width="560"/>
  <outline>
    <contour>
      <point x="206" y="0" type="line"/>
      <point x="358" y="0" type="line"/>
      <point x="358" y="93" type="line"/>
      <point x="481" y="93" type="line"/>
      <point x="481" y="187" type="line"/>
      <point x="358" y="187" type="line"/>
      <point x="358" y="231" type="line"/>
      <point x="481" y="231" type="line"/>
      <point x="481" y="325" type="line"/>
      <point x="403" y="325" type="line"/>
      <point x="453" y="415"/>
      <point x="486" y="486"/>
      <point x="538" y="589" type="curve"/>
      <point x="373" y="589" type="line"/>
      <point x="347" y="513"/>
      <point x="318" y="439"/>
      <point x="284" y="367" type="curve"/>
      <point x="249" y="439"/>
      <point x="219" y="509"/>
      <point x="192" y="589" type="curve"/>
      <point x="26" y="589" type="line"/>
      <point x="57" y="520"/>
      <point x="114" y="414"/>
      <point x="161" y="325" type="curve"/>
      <point x="84" y="325" type="line"/>
      <point x="84" y="231" type="line"/>
      <point x="206" y="231" type="line"/>
      <point x="206" y="187" type="line"/>
      <point x="84" y="187" type="line"/>
      <point x="84" y="93" type="line"/>
      <point x="206" y="93" type="line"/>
    </contour>
  </outline>
</glyph>
<glyph name="zero.osf" format="2">
  <advance width="560"/>
  <guideline x="575" y="272" angle="0"/>
  <outline>
    <contour>
      <point x="280" y="-11" type="curve" smooth="yes"/>
      <point x="435" y="-11"/>
      <point x="511" y="114"/>
      <point x="511" y="296" type="curve" smooth="yes"/>
      <point x="511" y="477"/>
      <point x="435" y="602"/>
      <point x="280" y="602" type="curve" smooth="yes"/>
      <point x="129" y="602"/>
      <point x="49" y="476"/>
      <point x="49" y="296" type="curve" smooth="yes"/>
      <point x="49" y="114"/>
      <point x="124" y="-11"/>
    </contour>
    <contour>
      <point x="280" y="90" type="curve" smooth="yes"/>
      <point x="197" y="90"/>
      <point x="171" y="190"/>
      <point x="171" y="296" type="curve" smooth="yes"/>
      <point x="171" y="400"/>
      <point x="197" y="501"/>
      <point x="280" y="501" type="curve" smooth="yes"/>
      <point x="364" y="501"/>
      <point x="389" y="399"/>
      <point x="389" y="296" type="curve" smooth="yes"/>
      <point x="389" y="192"/>
      <point x="364" y="90"/>
    </contour>
    <contour>
      <point x="280" y="225" type="curve" smooth="yes"/>
      <point x="313" y="225"/>
      <point x="339" y="258"/>
      <point x="339" y="296" type="curve" smooth="yes"/>
      <point x="339" y="333"/>
      <point x="313" y="368"/>
      <point x="280" y="368" type="curve" smooth="yes"/>
      <point x="244" y="368"/>
      <point x="221" y="333"/>
      <point x="221" y="296" type="curve" smooth="yes"/>
      <point x="221" y="258"/>
      <point x="244" y="225"/>
    </contour>
  </outline>
</glyph>
